<?xml version="1.0" encoding="UTF-8" standalone="no"?>
<!-- Created with Inkscape (http://www.inkscape.org/) -->

<svg
   xmlns:dc="http://purl.org/dc/elements/1.1/"
   xmlns:cc="http://creativecommons.org/ns#"
   xmlns:rdf="http://www.w3.org/1999/02/22-rdf-syntax-ns#"
   xmlns:svg="http://www.w3.org/2000/svg"
   xmlns="http://www.w3.org/2000/svg"
   xmlns:sodipodi="http://sodipodi.sourceforge.net/DTD/sodipodi-0.dtd"
   xmlns:inkscape="http://www.inkscape.org/namespaces/inkscape"
   width="2108.2676"
   height="2108.2676"
   id="svg2"
   version="1.1"
   inkscape:version="0.48.5 r10040"
   sodipodi:docname="drawing.svg">
  <defs
     id="defs4">
    <clipPath
       id="clipPath5577"
       clipPathUnits="userSpaceOnUse">
      <path
         id="path5579"
         d="m 0,8418.9 5952.8,0 L 5952.8,0 0,0 0,8418.9 z" />
    </clipPath>
    <clipPath
       id="clipPath5565"
       clipPathUnits="userSpaceOnUse">
      <path
         id="path5567"
         d="M 0,8418.9 0,0 l 5952.81,0 0,8418.9 -5952.81,0 z" />
    </clipPath>
    <clipPath
       clipPathUnits="userSpaceOnUse"
       id="clipPath7402">
      <path
         id="path7404"
         style="fill:#000000;fill-opacity:1;stroke:none;display:inline"
         d="m 3364.422,-425.27412 0,2.95876 352.0513,0 0,-2.95876 -352.0513,0 z m 0,-5.91753 0,2.95878 352.0513,0 0,-2.95878 -352.0513,0 z m 0,-5.91753 0,2.95876 352.0513,0 0,-2.95876 -352.0513,0 z m 0,-5.91753 0,2.95878 352.0513,0 0,-2.95878 -352.0513,0 z m 0,-5.91753 0,2.95876 352.0513,0 0,-2.95876 -352.0513,0 z m 0,-5.91753 0,2.95878 352.0513,0 0,-2.95878 -352.0513,0 z m 0,-5.91753 0,2.95876 352.0513,0 0,-2.95876 -352.0513,0 z m 0,-5.91232 0,2.95878 352.0513,0 0,-2.95878 -352.0513,0 z m 0,-5.91751 0,2.95876 352.0513,0 0,-2.95876 -352.0513,0 z m 0,-5.91755 0,2.95878 352.0513,0 0,-2.95878 -352.0513,0 z m 0,-5.91751 0,2.95876 352.0513,0 0,-2.95876 -352.0513,0 z m 0,-5.91755 0,2.95878 352.0513,0 0,-2.95878 -352.0513,0 z m 0,-5.91751 0,2.95876 352.0513,0 0,-2.95876 -352.0513,0 z m 0,-5.91755 0,2.95878 352.0513,0 0,-2.95878 -352.0513,0 z m 0,-5.9123 0,2.95877 352.0513,0 0,-2.95877 -352.0513,0 z m 0,-5.91753 0,2.95876 352.0513,0 0,-2.95876 -352.0513,0 z m 0,-5.91753 0,2.95877 352.0513,0 0,-2.95877 -352.0513,0 z m 0,-5.91753 0,2.95876 352.0513,0 0,-2.95876 -352.0513,0 z m 0,-5.91753 0,2.95877 352.0513,0 0,-2.95877 -352.0513,0 z m 0,-5.91753 0,2.95876 352.0513,0 0,-2.95876 -352.0513,0 z m 0,-5.91753 0,2.95877 352.0513,0 0,-2.95877 -352.0513,0 z m 0,-5.9123 0,2.95875 352.0513,0 0,-2.95875 -352.0513,0 z m 0,-5.91755 0,2.95877 352.0513,0 0,-2.95877 -352.0513,0 z m 0,-5.91751 0,2.95876 352.0513,0 0,-2.95876 -352.0513,0 z m 0,-5.91755 0,2.95878 352.0513,0 0,-2.95878 -352.0513,0 z m 0,-5.91751 0,2.95876 352.0513,0 0,-2.95876 -352.0513,0 z m 0,-5.91755 0,2.95878 352.0513,0 0,-2.95878 -352.0513,0 z m 0,-5.9123 0,2.95877 352.0513,0 0,-2.95877 -352.0513,0 z m 0,-5.91753 0,2.95876 352.0513,0 0,-2.95876 -352.0513,0 z m 0,-5.91753 0,2.95877 352.0513,0 0,-2.95877 -352.0513,0 z m 0,-5.91753 0,2.95876 352.0513,0 0,-2.95876 -352.0513,0 z m 0,-5.91753 0,2.95877 352.0513,0 0,-2.95877 -352.0513,0 z m 0,-5.91753 0,2.95876 352.0513,0 0,-2.95876 -352.0513,0 z m 0,-5.91753 0,2.95876 352.0513,0 0,-2.95876 -352.0513,0 z m 0,-5.91753 0,2.95876 352.0513,0 0,-2.95876 -352.0513,0 z m 0,-5.91232 0,2.95877 352.0513,0 0,-2.95877 -352.0513,0 z m 0,-5.91753 0,2.95877 352.0513,0 0,-2.95877 -352.0513,0 z m 0,-5.91753 0,2.95877 352.0513,0 0,-2.95877 -352.0513,0 z m 0,-5.91753 0,2.95877 352.0513,0 0,-2.95877 -352.0513,0 z m 0,-5.91753 0,2.95877 352.0513,0 0,-2.95877 -352.0513,0 z m 0,-5.91752 0,2.95876 352.0513,0 0,-2.95876 -352.0513,0 z m 0,-5.91753 0,2.95876 352.0513,0 0,-2.95876 -352.0513,0 z m 0,-5.91232 0,2.95877 352.0513,0 0,-2.95877 -352.0513,0 z m 0,-5.91753 0,2.95877 352.0513,0 0,-2.95877 -352.0513,0 z m 0,-5.91753 0,2.95877 352.0513,0 0,-2.95877 -352.0513,0 z m 0,-5.91753 0,2.95877 352.0513,0 0,-2.95877 -352.0513,0 z m 0,-5.91753 0,2.95877 352.0513,0 0,-2.95877 -352.0513,0 z m 0,-5.91753 0,2.95877 352.0513,0 0,-2.95877 -352.0513,0 z m 0,-5.91753 0,2.95877 352.0513,0 0,-2.95877 -352.0513,0 z m 0,-5.91231 0,2.95877 352.0513,0 0,-2.95877 -352.0513,0 z m 0,-5.91753 0,2.95877 352.0513,0 0,-2.95877 -352.0513,0 z m 0,-5.91753 0,2.95877 352.0513,0 0,-2.95877 -352.0513,0 z m 0,-5.91753 0,2.95877 352.0513,0 0,-2.95877 -352.0513,0 z m 0,-5.91753 0,2.95877 352.0513,0 0,-2.95877 -352.0513,0 z m 0,-5.91753 0,2.95877 352.0513,0 0,-2.95877 -352.0513,0 z m 0,-5.91231 0,2.95355 352.0513,0 0,-2.95355 -352.0513,0 z m 0,-5.91753 0,2.95877 352.0513,0 0,-2.95877 -352.0513,0 z m 0,-5.91753 0,2.95877 352.0513,0 0,-2.95877 -352.0513,0 z m 0,-5.91752 0,2.95875 352.0513,0 0,-2.95875 -352.0513,0 z m 0,-5.91753 0,2.95875 352.0513,0 0,-2.95875 -352.0513,0 z"
         inkscape:connector-curvature="0" />
    </clipPath>
    <clipPath
       clipPathUnits="userSpaceOnUse"
       id="clipPath7406">
      <path
         id="path7408"
         style="fill:#000000;fill-opacity:1;stroke:none;display:inline"
         d="m 4886.2151,2676.1276 0,25.8483 3075.5698,0 0,-25.8483 -3075.5698,0 z m 0,-51.6963 0,25.8481 3075.5698,0 0,-25.8481 -3075.5698,0 z m 0,-51.6964 0,25.8483 3075.5698,0 0,-25.8483 -3075.5698,0 z m 0,-51.6963 0,25.8481 3075.5698,0 0,-25.8481 -3075.5698,0 z m 0,-51.6964 0,25.8482 3075.5698,0 0,-25.8482 -3075.5698,0 z m 0,-51.6964 0,25.8481 3075.5698,0 0,-25.8481 -3075.5698,0 z m 0,-51.6509 0,25.8483 3075.5698,0 0,-25.8483 -3075.5698,0 z m 0,-51.6962 0,25.8481 3075.5698,0 0,-25.8481 -3075.5698,0 z m 0,-51.6965 0,25.8482 3075.5698,0 0,-25.8482 -3075.5698,0 z m 0,-51.6963 0,25.8482 3075.5698,0 0,-25.8482 -3075.5698,0 z m 0,-51.6965 0,25.8483 3075.5698,0 0,-25.8483 -3075.5698,0 z m 0,-51.6962 0,25.8481 3075.5698,0 0,-25.8481 -3075.5698,0 z m 0,-51.6965 0,25.8482 3075.5698,0 0,-25.8482 -3075.5698,0 z m 0,-51.6507 0,25.8482 3075.5698,0 0,-25.8482 -3075.5698,0 z m 0,-51.6964 0,25.8481 3075.5698,0 0,-25.8481 -3075.5698,0 z m 0,-51.6964 0,25.8483 3075.5698,0 0,-25.8483 -3075.5698,0 z m 0,-51.6964 0,25.8481 3075.5698,0 0,-25.8481 -3075.5698,0 z m 0,-51.6964 0,25.8483 3075.5698,0 0,-25.8483 -3075.5698,0 z m 0,-51.6963 0,25.8481 3075.5698,0 0,-25.8481 -3075.5698,0 z m 0,-51.6964 0,25.8482 3075.5698,0 0,-25.8482 -3075.5698,0 z m 0,-51.6507 0,25.8481 3075.5698,0 0,-25.8481 -3075.5698,0 z m 0,-51.6966 0,25.8483 3075.5698,0 0,-25.8483 -3075.5698,0 z m 0,-51.6962 0,25.8481 3075.5698,0 0,-25.8481 -3075.5698,0 z m 0,-51.6965 0,25.8482 3075.5698,0 0,-25.8482 -3075.5698,0 z m 0,-51.6962 0,25.8481 3075.5698,0 0,-25.8481 -3075.5698,0 z m 0,-51.6966 0,25.8483 3075.5698,0 0,-25.8483 -3075.5698,0 z m 0,-51.6507 0,25.8483 3075.5698,0 0,-25.8483 -3075.5698,0 z m 0,-51.6964 0,25.8482 3075.5698,0 0,-25.8482 -3075.5698,0 z m 0,-51.6963 0,25.8482 3075.5698,0 0,-25.8482 -3075.5698,0 z m 0,-51.6964 0,25.8481 3075.5698,0 0,-25.8481 -3075.5698,0 z m 0,-51.6964 0,25.8483 3075.5698,0 0,-25.8483 -3075.5698,0 z m 0,-51.6964 0,25.8482 3075.5698,0 0,-25.8482 -3075.5698,0 z m 0,-51.6964 0,25.8482 3075.5698,0 0,-25.8482 -3075.5698,0 z m 0,-51.69633 0,25.84819 3075.5698,0 0,-25.84819 -3075.5698,0 z m 0,-51.65079 0,25.84819 3075.5698,0 0,-25.84819 -3075.5698,0 z m 0,-51.69638 0,25.84819 3075.5698,0 0,-25.84819 -3075.5698,0 z m 0,-51.69638 0,25.84819 3075.5698,0 0,-25.84819 -3075.5698,0 z m 0,-51.69638 0,25.84819 3075.5698,0 0,-25.84819 -3075.5698,0 z m 0,-51.69637 0,25.84819 3075.5698,0 0,-25.84819 -3075.5698,0 z m 0,-51.69638 0,25.84819 3075.5698,0 0,-25.84819 -3075.5698,0 z m 0,-51.69638 0,25.84819 3075.5698,0 0,-25.84819 -3075.5698,0 z m 0,-51.65079 0,25.84819 3075.5698,0 0,-25.84819 -3075.5698,0 z m 0,-51.69638 0,25.84819 3075.5698,0 0,-25.84819 -3075.5698,0 z m 0,-51.69637 0,25.84818 3075.5698,0 0,-25.84818 -3075.5698,0 z m 0,-51.69638 0,25.84819 3075.5698,0 0,-25.84819 -3075.5698,0 z m 0,-51.69638 0,25.84819 3075.5698,0 0,-25.84819 -3075.5698,0 z m 0,-51.69638 0,25.84819 3075.5698,0 0,-25.84819 -3075.5698,0 z m 0,-51.69638 0,25.84819 3075.5698,0 0,-25.84819 -3075.5698,0 z m 0,-51.65079 0,25.84819 3075.5698,0 0,-25.84819 -3075.5698,0 z m 0,-51.69637 0,25.84818 3075.5698,0 0,-25.84818 -3075.5698,0 z m 0,-51.696383 0,25.848193 3075.5698,0 0,-25.848193 -3075.5698,0 z m 0,-51.696377 0,25.848189 3075.5698,0 0,-25.848189 -3075.5698,0 z m 0,-51.696378 0,25.848189 3075.5698,0 0,-25.848189 -3075.5698,0 z m 0,-51.696378 0,25.848189 3075.5698,0 0,-25.848189 -3075.5698,0 z m 0,-51.650794 0,25.802605 3075.5698,0 0,-25.802605 -3075.5698,0 z m 0,-51.69637 0,25.84818 3075.5698,0 0,-25.84818 -3075.5698,0 z m 0,-51.69638 0,25.84819 3075.5698,0 0,-25.84819 -3075.5698,0 z m 0,-51.69644 0,25.84818 3075.5698,0 0,-25.84818 -3075.5698,0 z m 0,-51.69638 0,25.84812 3075.5698,0 0,-25.84812 -3075.5698,0 z"
         inkscape:connector-curvature="0" />
    </clipPath>
  </defs>
  <sodipodi:namedview
     id="base"
     pagecolor="#ffffff"
     bordercolor="#666666"
     borderopacity="1.0"
     inkscape:pageopacity="0.0"
     inkscape:pageshadow="2"
     inkscape:zoom="0.25"
     inkscape:cx="810.16329"
     inkscape:cy="1203.6142"
     inkscape:document-units="px"
     inkscape:current-layer="layer3"
     showgrid="false"
     units="mm"
     inkscape:window-width="1920"
     inkscape:window-height="1003"
     inkscape:window-x="0"
     inkscape:window-y="25"
     inkscape:window-maximized="1" />
  <metadata
     id="metadata7">
    <rdf:RDF>
      <cc:Work
         rdf:about="">
        <dc:format>image/svg+xml</dc:format>
        <dc:type
           rdf:resource="http://purl.org/dc/dcmitype/StillImage" />
        <dc:title></dc:title>
      </cc:Work>
    </rdf:RDF>
  </metadata>
  <g
     inkscape:groupmode="layer"
     id="layer2"
     inkscape:label="cuco"
     style="display:inline">
    <g
       id="g6748"
       transform="matrix(5.9885629,0,0,5.9885629,-20148.053,4637.3297)"
       style="fill:#000000;display:inline"
       clip-path="url(#clipPath7402)">
      <path
         id="path6750"
         style="fill:#000000;stroke:#ffffff;stroke-width:1.18916833;stroke-linecap:butt;stroke-linejoin:miter;stroke-miterlimit:10;stroke-opacity:1;stroke-dasharray:none"
         d="m 3503.3529,-527.73538 c -0.6945,0 -1.1012,-0.0452 -1.1012,-0.0452 l -1.1725,-0.1094 -1.1083,-0.51372 c -10.0747,-4.91127 -17.9921,-8.58817 -19.1076,-8.95919 -3.1489,-0.89902 -6.8924,-3.62459 -6.3382,-11.36608 0.024,-0.29253 0.038,-0.42096 0.038,-0.53512 0,-2.55433 1.0584,-4.96359 1.691,-6.4001 l 0.1498,-0.34486 c 0.7849,-2.47823 4.0242,-6.53329 4.7924,-7.46798 l 0,-0.005 c 0.2236,-0.30918 0.8372,-1.42224 1.0941,-2.00969 0.1308,-1.78138 1.1344,-4.44036 6.7925,-13.8776 0.1998,-0.33296 0.6517,-1.40321 1.6767,-4.60208 0,0 0.371,-1.15111 0.4709,-1.43413 0.5066,-1.41987 1.2772,-2.44731 1.8932,-3.16319 0.3591,-1.90743 1.4389,-5.38218 4.6021,-12.80497 0.2687,-0.57793 0.5351,-1.163 0.8015,-1.74332 -0.074,0.002 -0.1427,0.002 -0.2141,0.002 -4.3999,0 -7.506,-2.47585 -9.1756,-3.80534 l -0.3116,-0.24972 c -2.395,-1.24625 -3.8267,-3.27735 -4.2596,-6.0386 -0.8419,-2.04775 -0.9323,-4.79235 -0.9941,-15.55908 -0.024,-3.37248 -0.055,-8.35272 -0.1903,-9.38253 -0.4471,-3.30114 0.4067,-7.45371 1.4889,-12.14617 0.176,-0.77296 0.3852,-1.66246 0.4399,-2.01683 0.2189,-2.41639 1.4175,-4.23344 6.8948,-11.59439 0.9894,-1.32711 3.256,-4.369 3.765,-5.20856 0.9442,-2.2499 2.9182,-4.18349 15.5638,-14.0631 1.5507,-1.21295 3.8196,-2.98719 4.2049,-3.33443 2.6066,-2.48298 6.1028,-2.91822 8.4193,-3.206 0.05,-0.007 0.1,-0.0143 0.1522,-0.019 0.09,-0.12368 0.1831,-0.25211 0.264,-0.3734 -0.1451,-0.36389 -0.3734,-0.85858 -0.5185,-1.17014 -1.27,-2.73985 -2.6423,-9.28265 -1.5578,-14.62915 1.1202,-5.5225 4.947,-8.79747 7.0042,-10.55506 l 0.5756,-0.50183 c 3.8814,-3.44383 7.6321,-3.50329 10.6454,-3.54848 0.861,-0.0143 1.7077,-0.0285 2.6875,-0.0975 0.3663,-0.0262 0.7207,-0.0404 1.0655,-0.0404 6.4263,0 9.9272,4.22868 11.2448,5.81979 l 0.1522,0.18789 c 2.8564,2.3046 3.8482,6.94236 3.8624,10.03896 0.2759,0.47804 0.5827,1.07263 0.8515,1.77661 0.8538,2.23564 0.9275,5.07062 0.3282,12.14855 l -0.052,0.63739 c -0.1261,1.515 -0.6398,3.73399 -1.7743,5.7532 0.5899,0.25686 1.1297,0.4828 1.4936,0.60172 2.9396,0.95371 4.9874,3.20599 6.6356,5.01591 0.4376,0.48042 0.8776,0.98463 1.1844,1.24149 4.5949,3.55799 6.8211,13.76106 6.8401,13.86095 0.2711,1.42462 1.0845,3.80058 2.1191,6.18605 1.2867,2.98481 2.3022,4.28814 2.7184,4.7424 2.571,0.8015 4.3072,3.03476 5.9911,5.19905 0.1783,0.23307 0.4114,0.53274 0.6421,0.82052 2.3593,0.63026 5.1111,1.867 6.921,3.11562 0.528,0.10227 1.3794,0.23308 2.1809,0.30919 4.9779,0.1641 10.3505,4.55927 10.6002,12.61469 0.1856,5.90779 -3.1417,10.41236 -9.373,12.67892 l -0.2307,0.0856 c -0.5827,0.23783 -2.6257,1.06787 -19.2978,1.06787 -3.9028,0 -6.167,-1.76473 -7.3847,-2.71368 l -0.3282,-0.25211 c -0.6874,-0.51372 -4.3762,-2.7446 -5.5963,-3.32015 -0.7753,-0.18551 -1.5958,-0.53513 -2.7255,-1.28668 0.1022,0.75155 0.3472,1.99542 0.4899,2.73984 0.3258,1.67911 0.6945,3.58177 0.9704,5.80552 0.4542,3.67691 1.3342,6.50475 1.5054,7.03274 4.5831,11.44456 9.5538,23.77861 10.0604,24.84173 0.1808,0.33296 0.8134,1.51975 2.2475,6.96852 1.867,3.55324 4.312,8.18624 6.1147,11.5825 0.4162,-0.0523 0.8967,-0.088 1.4247,-0.088 3.6792,0 7.0089,1.72668 9.1304,4.73527 3.1013,4.38565 1.9764,10.07701 -0.5161,13.76819 l -0.3972,0.58507 -0.4947,0.48281 c -7.0232,6.80204 -15.7184,15.14762 -17.2738,16.30587 -1.6268,1.22484 -3.3059,1.82419 -5.1206,1.82419 -1.7956,0 -3.0942,-0.61837 -3.7221,-0.91804 -2.2333,-0.41859 -5.6129,-2.49488 -15.7874,-18.00401 -2.7351,-4.16922 -9.1352,-14.37942 -10.2839,-16.78392 l -0.024,0.01 c -0.3401,-0.7682 -3.2964,-6.2027 -7.8961,-14.43888 -1.4436,2.42352 -2.8706,4.87321 -3.2321,5.72228 -0.4519,1.05122 -1.6007,3.72685 -4.7091,5.64617 -1.603,2.00969 -6.1576,9.07811 -9.2613,14.14397 l 1.584,1.515 0.528,1.13446 c 0.4804,1.01793 2.7446,6.48097 0.026,13.48755 -2.0287,5.2371 -7.1944,8.49066 -13.4851,8.49066 z"
         inkscape:connector-curvature="0" />
      <path
         id="path6752"
         style="fill:#000000;stroke:#ffffff;stroke-width:1.78375244;stroke-linecap:butt;stroke-linejoin:miter;stroke-miterlimit:10;stroke-opacity:1;stroke-dasharray:none"
         d="m 3511.1919,-638.17819 c 0.2378,3.23929 -0.7159,12.24843 -2.3665,14.68147 -0.2973,0.61836 -0.7159,3.4034 -0.8942,6.06951 1.7171,-2.92773 3.5389,-5.47731 3.5722,-5.5225 0.4995,-0.74917 0.9395,-3.93614 0.8467,-5.0492 -0.088,-0.54464 -0.074,-1.36517 0.1094,-6.20746 0.071,-1.88365 0.1808,-4.76857 0.2236,-6.95664 -0.01,0.0167 -0.014,0.0333 -0.019,0.0476 -0.4186,1.15825 -0.9276,2.02159 -1.3034,2.65422 -0.057,0.0999 -0.1165,0.19265 -0.1688,0.28303 z m -7.8295,107.07033 c -0.4876,0 -0.773,-0.0285 -0.773,-0.0285 l -0.6088,-0.0571 -0.5851,-0.26875 c -8.4978,-4.14544 -18.1182,-8.68807 -19.5095,-9.11617 -4.4641,-1.27716 -4.1193,-6.09329 -3.9885,-7.91034 0.021,-0.28778 0.045,-0.55178 0.045,-0.77772 0,-1.83608 0.8443,-3.76491 1.4056,-5.03732 0.1047,-0.24496 0.1998,-0.44475 0.2545,-0.59458 0.3567,-1.57208 3.8933,-6.11946 4.2239,-6.47145 0.4448,-0.55178 1.6791,-2.78504 1.8218,-3.5247 -0.014,-0.84431 -0.014,-2.15953 6.3312,-12.74075 0.6326,-1.06074 1.553,-3.93139 1.9954,-5.30845 0.1807,-0.56366 0.3282,-1.02982 0.4376,-1.33662 0.4162,-1.16539 1.144,-1.95975 1.672,-2.54006 0.083,-0.0856 0.1688,-0.17362 0.2473,-0.264 0.05,-1.12733 0.6541,-3.9528 4.4998,-12.96907 1.5745,-3.36059 3.2845,-7.399 3.8886,-9.28503 -0.6945,0.6921 -1.5293,1.32712 -2.5282,1.85749 -1.2343,0.65879 -2.54,0.99652 -3.8743,0.99652 -3.2274,0 -5.639,-1.92645 -7.085,-3.07995 -0.245,-0.1974 -0.4567,-0.37577 -0.6351,-0.48756 -2.0596,-0.98225 -2.54,-2.54957 -2.716,-3.79582 -0.033,-0.25211 -0.04,-0.30681 -0.1213,-0.47091 -0.6279,-1.35328 -0.7492,-3.51281 -0.8134,-14.4698 -0.026,-4.01226 -0.055,-8.55964 -0.2212,-9.80826 -0.3686,-2.73747 0.4662,-6.74021 1.4318,-10.94511 0.2069,-0.90139 0.4661,-2.02158 0.4994,-2.3379 0.1451,-1.56257 1.0798,-3.06092 6.2551,-10.01518 1.5792,-2.1191 3.7435,-5.02304 4.1097,-5.76509 0.6112,-1.57921 2.7137,-3.58415 14.5935,-12.86442 1.8884,-1.47695 4.0336,-3.15129 4.4237,-3.51994 1.8313,-1.7457 4.5569,-2.0858 6.5452,-2.33314 0.4947,-0.0618 1.1725,-0.14508 1.3913,-0.2093 0.5113,-0.32583 1.9027,-2.17618 2.0668,-2.92773 0.1332,-0.86096 -0.2474,-1.72905 -0.9252,-3.18935 -1.0988,-2.36644 -2.1952,-8.18623 -1.3105,-12.53621 0.8895,-4.38328 4.0194,-7.06366 5.8912,-8.66666 l 0.5969,-0.51848 c 2.973,-2.63757 5.6534,-2.678 8.4883,-2.72319 0.8324,-0.0119 1.7743,-0.0238 2.8731,-0.10465 0.2854,-0.0214 0.5589,-0.0309 0.8252,-0.0309 4.8376,0 7.4109,3.10611 8.6477,4.59733 0.176,0.21167 0.3211,0.40669 0.4661,0.54464 2.2214,1.78137 2.9682,6.08854 2.7375,8.44071 0.3044,0.45902 0.7563,1.14636 1.1178,2.0858 0.6208,1.62916 0.6493,4.31431 0.1118,10.64782 l -0.055,0.64453 c -0.1927,2.30936 -1.4674,5.972 -4.1978,7.12073 0,0.0571 0,0.11179 0,0.16649 0.9656,0.33059 2.1096,0.81815 3.5366,1.44127 1.0298,0.44951 2.093,0.9109 2.7089,1.11068 2.0763,0.67783 3.7221,2.48299 5.1753,4.07647 0.5898,0.64691 1.1987,1.31998 1.5911,1.62203 2.9777,2.30936 5.2633,9.97712 5.6105,11.83222 0.3211,1.67673 1.1963,4.26674 2.3427,6.90907 2.1024,4.87559 3.8695,6.35729 4.3238,6.49048 1.9027,0.43286 3.2535,2.16667 4.8161,4.17874 0.4115,0.52799 1.0441,1.34138 1.4579,1.78613 2.2737,0.40669 5.7128,1.90267 7.3087,3.19411 0.6421,0.20215 2.1738,0.44237 3.3249,0.55177 2.9895,0.10227 7.3348,2.63757 7.5441,9.36351 0.1403,4.45938 -2.2642,7.62495 -7.1565,9.40394 l -0.2568,0.0975 c -2.0002,0.81101 -15.4426,0.85382 -18.1182,0.85382 -2.7493,0 -4.2929,-1.2082 -5.3179,-2.00494 l -0.3306,-0.25686 c -0.9276,-0.6921 -5.3917,-3.40102 -6.6427,-3.8862 -0.7421,-0.11892 -1.8456,-0.52799 -5.7366,-3.96945 -0.1784,0.65405 -0.3758,1.30809 -0.5684,1.94548 -0.3639,1.20344 -0.7111,2.34029 -0.8396,3.23216 -0.09,0.65167 0.2664,2.4925 0.5827,4.12166 0.3164,1.62916 0.6731,3.47475 0.93,5.57244 0.5422,4.37139 1.6482,7.65349 1.6577,7.68679 3.596,9.00438 9.6251,24.00693 10.2197,25.23891 0.6112,1.15111 1.5554,4.56402 2.1215,6.73544 2.3926,4.55214 5.834,11.0783 7.6178,14.40559 l 0.7444,-0.41859 0.39,-0.10702 c 0.2046,-0.0547 0.9442,-0.24259 1.9503,-0.24259 2.6066,0 4.8708,1.17727 6.3763,3.30826 2.4854,3.51756 0.8205,7.90084 -0.5565,9.93907 l -0.1974,0.29016 -0.2498,0.24497 c -3.5746,3.46048 -15.3593,14.84557 -16.9361,16.01809 -0.654,0.49232 -1.7029,1.15825 -3.1085,1.15825 -1.0369,0 -1.8147,-0.37102 -2.2784,-0.5922 -0.2949,-0.1427 -0.4305,-0.2093 -0.7373,-0.25211 -4.9588,-0.74204 -23.6098,-32.48094 -23.693,-32.78537 -0.4685,-1.11781 -5.5487,-10.31722 -10.9071,-19.85673 -0.3876,0.64929 -0.8229,1.3723 -1.308,2.18094 -2.0121,3.35107 -4.5165,7.51792 -5.123,8.94254 -0.3924,0.91328 -1.2795,2.9753 -3.8006,4.34522 -1.8646,2.02872 -8.7855,13.02377 -11.347,17.33094 l 3.0752,2.94914 0.264,0.56604 c 0.2331,0.49232 2.2047,4.99213 -0.064,10.83808 -1.5388,3.96707 -5.406,6.33827 -10.3434,6.33827 z"
         inkscape:connector-curvature="0" />
      <path
         id="path6754"
         style="fill:#000000;stroke:#ffffff;stroke-width:2.37833667;stroke-linecap:butt;stroke-linejoin:miter;stroke-miterlimit:10;stroke-opacity:1;stroke-dasharray:none"
         d="m 3482.8373,-543.81531 c 2.2523,0.64928 20.0447,9.32308 20.0447,9.32308 0,0 5.8792,0.49707 7.6867,-4.1716 1.8123,-4.66868 0.1594,-8.18386 0.1594,-8.18386 l -3.0157,-2.89682 c 0,0 -1.8218,-0.4828 -1.213,-1.92883 0.4471,-1.06549 11.7633,-19.47857 13.4114,-20.28245 1.6625,-0.79436 2.219,-2.01921 2.5734,-2.84211 1.3699,-3.21076 9.3516,-15.59951 9.5038,-16.71733 0,0 13.723,24.27806 14.1821,25.86917 0.4447,1.59586 18.8269,30.03601 20.946,30.35471 2.1214,0.31632 2.1072,1.4484 3.6127,0.31632 1.5245,-1.13447 16.6031,-15.7327 16.6031,-15.7327 0,0 2.3998,-3.55799 0.5946,-6.1147 -1.8075,-2.55909 -4.6639,-1.75997 -4.6639,-1.75997 l -2.5734,1.44365 c 0,0 -0.5993,0.65166 -1.2034,-0.3187 -0.6089,-0.95847 -9.0496,-17.02889 -9.0496,-17.02889 0,0 -1.3699,-5.31558 -1.9597,-6.42627 -0.5994,-1.11068 -10.4052,-25.68127 -10.4052,-25.68127 0,0 -1.2178,-3.54848 -1.8123,-8.36224 -0.5899,-4.81613 -1.7981,-8.50493 -1.5055,-10.60024 0.3115,-2.09294 1.3651,-4.67106 1.817,-6.90907 0.4543,-2.24753 0.4376,-4.00988 0.1427,-4.96359 0,0 8.0008,7.68916 9.2042,7.85089 1.1987,0.17362 6.921,3.70307 7.9888,4.50219 1.0584,0.79912 1.8123,1.57922 3.6199,1.57922 1.8004,0 15.6851,-0.13081 16.8838,-0.61837 1.2034,-0.47091 5.4249,-1.603 5.2775,-6.25978 -0.1451,-4.64727 -2.8469,-6.10044 -4.3619,-6.10044 0,0 -4.3904,-0.38529 -5.1419,-1.19868 -0.7445,-0.81815 -4.9565,-2.68514 -6.3359,-2.65184 -1.4603,0.0309 -4.4499,-5.58909 -6.0172,-5.94584 -2.6424,-0.61837 -5.0587,-4.76143 -6.6427,-8.43121 -0.9038,-2.09056 -2.1025,-5.2252 -2.5639,-7.63208 -0.4495,-2.41639 -2.6922,-8.49304 -4.3713,-9.79399 -1.6577,-1.29381 -3.7792,-4.51408 -5.7271,-5.1491 -1.955,-0.63026 -6.0195,-2.73746 -7.5393,-2.88492 -1.5079,-0.15459 -0.918,-2.08105 -1.0631,-3.5247 -0.1356,-1.44602 0.9156,-2.25942 1.9692,-2.57811 1.0584,-0.31394 2.1049,-2.40688 2.2618,-4.3262 0.1594,-1.93121 0.7682,-8.21239 0.1594,-9.81539 -0.6136,-1.59349 -1.6553,-2.09056 -1.3628,-3.36535 0.2949,-1.28192 -0.3044,-4.81851 -1.5126,-5.78649 -1.2035,-0.96323 -2.8493,-4.66154 -7.5298,-4.33333 -4.683,0.33772 -6.6522,-0.42097 -9.3612,1.98353 -1.6386,1.4603 -4.6829,3.64599 -5.4297,7.33717 -0.7468,3.69118 0.3116,8.82601 1.0583,10.43614 0.7492,1.61251 1.5008,3.21789 1.2035,5.14672 -0.2925,1.92645 -2.8612,5.13483 -4.3714,5.6105 -1.5055,0.4828 -5.1134,0.32583 -6.6284,1.76948 -1.5103,1.44603 -17.4974,13.34009 -18.2514,15.26416 -0.7468,1.92884 -9.9581,13.16172 -10.1079,14.77185 -0.1379,1.61014 -2.3997,9.15184 -1.9455,12.52908 0.4495,3.36773 0,21.69281 0.7421,23.28867 0.7586,1.59824 0,2.07391 1.3675,2.72558 1.3509,0.64928 4.5093,4.66867 8.4312,2.57336 3.929,-2.09056 3.9052,-6.25979 3.9052,-6.25979 0,0 0.3211,-6.89955 1.5245,-8.67141 1.2035,-1.77662 2.0954,-11.62769 1.7838,-12.73837 -0.3116,-1.11782 0.9204,-2.05251 1.672,-4.12879 0.742,-2.07629 5.7318,-8.50969 7.399,-9.62989 0,0 -1.2082,5.27753 -0.9014,7.37522 0.3163,2.08818 -0.4495,15.10482 -0.3021,16.06567 0.1594,0.96084 -0.1474,5.76033 -1.5078,7.54408 -1.3581,1.77186 -5.8817,9.002 -5.8817,10.93084 0,1.92407 -4.3666,11.23526 -4.3666,11.23526 0,0 -4.3904,10.29344 -4.2263,11.88455 0.157,1.59824 -1.6553,2.41163 -2.1143,3.6888 -0.4495,1.27716 -1.6482,5.46779 -2.709,7.2349 -1.0536,1.75521 -5.8792,9.79874 -5.8792,11.24953 0,1.44365 -2.1048,4.95883 -2.7184,5.61525 -0.6089,0.64453 -3.3083,4.48316 -3.4558,5.12769 -0.1569,0.65167 -1.5197,3.05617 -1.5197,4.66868 0,1.61251 -0.7421,4.80424 1.5197,5.44877 z"
         inkscape:connector-curvature="0" />
      <path
         id="path6756"
         style="fill:#000000;fill-opacity:1;fill-rule:nonzero;stroke:none"
         d="m 3442.4104,-469.99412 c -0.8895,-0.48756 -1.6411,-1.18917 -2.238,-2.08818 -0.5661,-0.85858 -1.0013,-1.90029 -1.2962,-3.10135 -0.2854,-1.17014 -0.4305,-2.49963 -0.4305,-3.9528 0,-3.04665 0.5993,-5.49633 1.779,-7.2896 1.2914,-1.93359 3.1085,-2.91108 5.3988,-2.91108 1.0274,0 2.0359,0.27588 3.0134,0.8229 l 0,-6.10519 c -1.1321,-0.32107 -2.2523,-0.4828 -3.344,-0.4828 -4.2453,0 -7.5346,1.39608 -10.0485,4.26673 -2.5186,2.89444 -3.7982,6.82345 -3.7982,11.67526 0,5.18239 1.3557,9.21605 4.0266,11.99157 2.3831,2.47347 5.2442,3.67691 8.7404,3.67691 1.2771,0 2.7327,-0.27113 4.3404,-0.80626 l 0.3401,-5.91016 c -2.2475,1.24149 -4.6734,1.20106 -6.4833,0.21405"
         inkscape:connector-curvature="0" />
      <path
         id="path6758"
         style="fill:#000000;fill-opacity:1;fill-rule:nonzero;stroke:none"
         d="m 3474.8437,-468.37923 c 0.5518,-1.07977 0.8277,-2.51153 0.8277,-4.28576 l 0,-22.43723 -6.8044,0 0,20.62731 c 0,1.76473 -0.2069,2.95865 -0.6541,3.75777 -0.409,0.68021 -1.2177,1.45555 -2.8682,1.45555 -1.6149,0 -2.4354,-0.81577 -2.8374,-1.50073 -0.4828,-0.82053 -0.704,-2.00494 -0.704,-3.73399 l 0,-20.60591 -6.802,0 0,21.16006 c 0,3.91474 1.163,6.65458 3.5556,8.38126 1.9122,1.3723 4.3381,2.06915 7.2087,2.06915 2.5044,0 4.6544,-0.62312 6.374,-1.8551 1.2653,-0.91328 2.1714,-1.93597 2.7041,-3.03238"
         inkscape:connector-curvature="0" />
      <path
         id="path6760"
         style="fill:#000000;fill-opacity:1;fill-rule:nonzero;stroke:none"
         d="m 3497.5925,-463.49175 6.8496,0 0,-31.61047 -6.4714,0 0,6.44767 c 0,1.37706 0.086,3.12038 0.2592,5.18477 0.176,2.08818 0.4305,4.60208 0.7659,7.53933 l -2.3142,0.49232 -0.9465,-2.99671 c -0.3758,-1.17252 -0.7231,-2.21185 -1.037,-3.11562 l -0.8419,-2.41639 -4.2953,-11.13537 -6.7592,0 0,31.61047 6.4738,0 0,-7.48463 c 0,-1.27716 -0.083,-2.81119 -0.2497,-4.55451 -0.1665,-1.75759 -0.4329,-3.83864 -0.7944,-6.18605 l 2.3165,-0.51372 c 0.3044,1.03695 0.6588,2.12861 1.0655,3.27259 0.4091,1.15825 0.8681,2.39974 1.3747,3.72447 l 4.6044,11.74185"
         inkscape:connector-curvature="0" />
      <path
         id="path6762"
         style="fill:#000000;fill-opacity:1;fill-rule:nonzero;stroke:none"
         d="m 3523.4022,-466.27203 c 1.8337,-1.88126 2.7256,-4.21916 2.7256,-7.14928 0,-1.69099 -0.3639,-3.11562 -1.1083,-4.35235 -0.7515,-1.26765 -2.0335,-2.53293 -3.8196,-3.77442 l -1.4674,-1.04885 c -1.5674,-1.08214 -2.3665,-2.29034 -2.3665,-3.57702 0,-0.89901 0.3948,-1.69575 1.144,-2.30223 1.408,-1.22246 3.8529,-1.13922 5.9887,0.35675 0.233,0.16173 0.4566,0.34011 0.6802,0.528 l 0,-6.26454 c -1.8195,-0.82766 -3.6389,-1.24625 -5.4131,-1.24625 -2.1952,0 -3.9956,0.6041 -5.5202,1.8551 -0.566,0.44237 -1.0583,0.94182 -1.4817,1.50311 -0.4376,0.58983 -0.8229,1.23673 -1.1463,1.92407 -0.6517,1.48409 -0.987,2.93963 -0.987,4.2929 0,0.78961 0.09,1.54592 0.2711,2.25942 0.176,0.6921 0.4614,1.37944 0.8443,2.03824 0.3924,0.67544 0.9062,1.339 1.534,1.96926 0.6636,0.67307 1.4675,1.35565 2.4022,2.02872 l 1.5197,1.1416 c 1.3961,1.07739 2.1001,2.25466 2.1001,3.51756 0,0.96561 -0.4091,1.81229 -1.1892,2.44255 -0.7111,0.57794 -1.6125,0.87047 -2.6851,0.87047 -1.6458,0 -3.2108,-0.61836 -4.6639,-1.84083 l 0,6.57372 c 5.2704,1.77662 9.6655,1.30809 12.6384,-1.7457"
         inkscape:connector-curvature="0" />
      <path
         id="path6764"
         style="fill:#000000;fill-opacity:1;fill-rule:nonzero;stroke:none"
         d="m 3547.2807,-495.10222 -17.1264,0 0,5.76509 5.0659,0 0,25.84538 6.7997,0 0,-25.84538 5.2608,0 0,-5.76509"
         inkscape:connector-curvature="0" />
      <path
         id="path6766"
         style="fill:#000000;fill-opacity:1;fill-rule:nonzero;stroke:none"
         d="m 3569.0187,-475.94234 0.9133,-0.53988 4.6782,6.18843 -0.8871,0.72301 c -0.9656,0.79199 -1.9978,1.19393 -3.0681,1.19393 -1.0702,0 -2.0239,-0.41621 -2.7446,-1.20106 -0.7182,-0.7801 -1.0845,-1.72668 -1.0845,-2.80882 0,-1.0322 0.3805,-2.48536 2.1928,-3.55561 m 0.8895,-13.38766 c 0.1713,-0.36151 0.3996,-0.6802 0.6921,-0.94658 0.2807,-0.25448 0.5946,-0.45902 0.9466,-0.60885 1.1131,-0.46378 2.464,-0.22594 3.3321,0.62074 0.5803,0.57081 0.8871,1.31047 0.8871,2.14051 0,1.25576 -0.7849,2.60665 -2.4711,4.24533 l -1.0227,0.98939 -0.7944,-1.17966 c -1.2676,-1.88602 -1.8337,-3.14416 -1.8337,-4.07885 0,-0.40669 0.088,-0.80387 0.264,-1.18203 m -6.6236,23.20543 c 1.8717,1.77424 4.1002,2.63282 6.802,2.63282 2.3807,0 4.7424,-0.57794 7.0137,-1.72192 l 0.9109,-0.45664 1.5626,2.17856 6.9329,0 -3.8934,-5.18953 0.8039,-0.72777 c 0.5351,-0.48518 1.0869,-0.9989 1.6577,-1.55306 0.3544,-0.34723 0.7206,-0.7135 1.0916,-1.10592 l -3.1203,-4.10263 c -0.3068,0.39004 -0.5946,0.74917 -0.8681,1.07263 -0.5447,0.65642 -1.0227,1.19868 -1.4318,1.63391 l -0.9466,1.00604 -5.004,-6.42389 1.0964,-0.70398 c 3.5295,-2.25229 5.2443,-4.76857 5.2443,-7.68917 0,-2.15239 -0.8586,-3.94566 -2.6281,-5.48206 -1.8028,-1.57684 -3.9361,-2.34504 -6.5095,-2.34504 -2.3474,0 -4.2739,0.73015 -5.8793,2.2285 -1.5982,1.48408 -2.3735,3.21551 -2.3735,5.29656 0,1.85272 0.792,3.76728 2.3545,5.69135 l 0.8943,1.10355 -1.2439,0.68734 c -3.5271,1.94548 -5.2418,4.44987 -5.2418,7.65349 0,2.48774 0.9085,4.55451 2.7755,6.31686"
         inkscape:connector-curvature="0" />
      <path
         id="path6768"
         style="fill:#000000;fill-opacity:1;fill-rule:nonzero;stroke:none"
         d="m 3614.2476,-469.99412 c -0.8919,-0.48994 -1.6458,-1.19155 -2.2404,-2.08818 -0.5661,-0.86572 -1.0013,-1.90743 -1.2938,-3.10135 -0.2902,-1.15825 -0.4329,-2.49012 -0.4329,-3.9528 0,-3.04189 0.5993,-5.49158 1.779,-7.28722 1.2962,-1.93597 3.1132,-2.91346 5.3988,-2.91346 1.0298,0 2.0383,0.27588 3.0134,0.8229 l 0,-6.10519 c -1.1321,-0.32107 -2.2523,-0.4828 -3.344,-0.4828 -4.2453,0 -7.5298,1.39608 -10.0437,4.26673 -2.521,2.89444 -3.8029,6.82107 -3.8029,11.67526 0,5.18239 1.3556,9.21605 4.0265,11.99157 2.3878,2.47347 5.249,3.67691 8.7427,3.67691 1.2772,0 2.7351,-0.27113 4.3381,-0.80626 l 0.3401,-5.91016 c -2.2499,1.24149 -4.6734,1.20106 -6.4809,0.21405"
         inkscape:connector-curvature="0" />
      <path
         id="path6770"
         style="fill:#000000;fill-opacity:1;fill-rule:nonzero;stroke:none"
         d="m 3641.2821,-472.29397 c -0.9703,2.50438 -2.5044,3.03238 -3.6151,3.03238 -1.0987,0 -2.609,-0.53513 -3.5889,-3.08233 -0.6516,-1.69575 -0.9727,-3.97182 -0.9727,-6.95425 0,-3.0419 0.3449,-5.31559 1.0465,-6.94713 1.0417,-2.55195 2.5828,-3.09421 3.6888,-3.09421 4.4498,0 4.4498,7.70581 4.4498,10.23398 0,2.84925 -0.3401,5.14196 -1.0084,6.81156 m 4.9184,-18.65092 c -2.0953,-2.7993 -4.8447,-4.15495 -8.4026,-4.15495 -2.9016,0 -5.3465,1.00365 -7.468,3.07994 -2.8849,2.82784 -4.3524,7.02799 -4.3524,12.48151 0,5.70801 1.4009,10.01756 4.1692,12.80259 2.1786,2.18093 4.721,3.24643 7.7629,3.24643 3.4058,0 6.0981,-1.37706 8.2315,-4.2049 2.1928,-2.91346 3.3035,-6.77588 3.3035,-11.48737 0,-4.94218 -1.0917,-8.89973 -3.2441,-11.76325"
         inkscape:connector-curvature="0" />
      <path
         id="path6772"
         style="fill:#000000;fill-opacity:1;fill-rule:nonzero;stroke:none"
         d="m 3410.9331,-449.68313 259.027,0 0,-297.31348 -259.027,0 0,297.31348 z m 261.4053,2.37834 -263.7837,0 0,-302.07015 263.7837,0 0,302.07015"
         inkscape:connector-curvature="0" />
    </g>
  </g>
  <g
     inkscape:groupmode="layer"
     id="layer3"
     inkscape:label="its"
     style="display:inline">
    <g
       id="g7140"
       transform="matrix(0.6854929,0,0,0.6854929,-3349.4726,238.36571)"
       clip-path="url(#clipPath7406)">
      <circle
         transform="matrix(11.754992,0,0,11.754992,4485.0787,-449.36396)"
         d="m 88.981001,58.384998 c 0,10.360862 -8.399138,18.760001 -18.76,18.760001 -10.360862,0 -18.760001,-8.399139 -18.760001,-18.760001 0,-10.360862 8.399139,-18.76 18.760001,-18.76 10.360862,0 18.76,8.399138 18.76,18.76 z"
         sodipodi:ry="18.76"
         sodipodi:rx="18.76"
         sodipodi:cy="58.384998"
         sodipodi:cx="70.221001"
         cx="70.221001"
         cy="58.384998"
         r="18.76"
         id="circle7044" />
      <path
         id="path7048"
         d="m 7566.1444,570.24054 c -37.7688,0 -73.2571,9.56856 -104.3256,26.34293 -7.8758,4.25531 -19.0783,-3.56176 -19.0783,-12.954 0,-57.41138 -46.538,-103.94939 -103.9377,-103.94939 -57.4231,0 -103.9611,46.53801 -103.9611,103.94939 0,57.38787 46.538,103.92589 103.9611,103.92589 12.7895,0 26.0609,12.66012 22.0407,22.88697 -9.8037,24.87356 -15.2463,51.9218 -15.2463,80.27484 0,121.78171 98.742,220.51193 220.5472,220.51193 121.77,0 220.5001,-98.71846 220.5001,-220.51193 0,-121.74646 -98.7184,-220.47663 -220.5001,-220.47663 z"
         inkscape:connector-curvature="0" />
      <path
         id="path7050"
         d="m 7795.2844,1502.1763 c -5.0076,-158.4103 -94.4983,-307.4401 -247.2897,-362.2301 -74.2445,-26.6368 -147.9248,-24.6502 -225.0258,-18.1967 -29.4345,2.4333 -60.1268,8.1462 -88.6914,-1.9748 -39.7672,-14.0943 -67.9086,-51.8513 -69.9775,-93.993 -1.4929,-30.37486 19.9012,-62.19562 27.1423,-91.24221 8.9338,-35.65289 9.9682,-72.73989 4.0437,-108.94526 -10.3327,-62.97149 -41.2836,-122.54579 -90.4077,-163.85284 -62.0781,-52.20392 -139.7786,-65.38126 -217.9258,-65.49881 -179.1225,-0.24686 -358.2804,-0.49371 -537.3794,-0.72881 -238.2502,-0.32914 -476.4416,-0.67004 -714.6683,-0.98742 -81.2035,-0.11755 -162.4304,-0.2351 -243.6692,-0.3409 -49.9117,-0.0705 -98.401,-2.96225 -146.3379,10.28562 -150.6049,41.64794 -233.3954,211.29598 -175.0906,355.69431 16.5745,41.10722 44.8806,72.89272 72.4578,104.23152 30.4219,34.5479 51.5926,76.8776 60.8438,121.9815 9.4863,46.5263 6.383,95.5211 -9.1336,140.4252 -7.4409,21.5586 -17.7265,42.1181 -30.4454,61.0672 -3.6911,5.5131 -40.2256,47.0905 -39.6967,47.9838 -123.1923,123.2276 -82.1438,338.5085 68.1437,418.2662 144.751,76.8188 330.4446,0.2116 378.6636,-156.8587 21.7232,-70.6357 14.1177,-157.7519 -23.9684,-221.3817 -20.8651,-34.8888 -54.8488,-56.0478 -76.96,-89.479 -27.4596,-41.5304 -42.7529,-90.4782 -43.8931,-140.2488 -4.0907,-177.3358 171.0234,-311.5896 341.3062,-261.24297 178.4643,52.73287 248.6886,277.45307 131.0681,422.40387 -14.2823,17.609 -31.5268,32.3262 -45.3155,50.3584 -14.9405,19.5015 -27.1775,41.0837 -36.1818,63.9472 -18.6434,47.3256 -23.2396,99.8704 -13.2714,149.7586 19.9012,99.553 92.8644,177.7707 191.1362,204.3487 176.9949,47.9134 353.8487,-97.7662 337.0156,-281.2029 -4.5022,-48.9713 -22.8165,-96.2381 -52.439,-135.4528 -27.9652,-37.0047 -60.4912,-67.0034 -79.3462,-111.3903 -35.171,-82.8374 -25.2262,-180.4038 25.7552,-254.425 47.2315,-68.5199 125.4727,-111.80173 208.6746,-115.01085 65.6869,-2.53907 144.6452,22.45205 191.6181,68.79025 26.2842,25.9315 45.821,58.3635 58.5046,92.9349 11.4611,31.3271 12.5073,61.1848 16.3747,93.7108 8.2873,70.5417 61.6667,104.3608 125.7432,120.3124 30.7628,7.6407 62.1956,12.2017 93.029,19.4662 35.2414,8.2991 73.0102,16.2219 97.8485,44.6573 55.1427,63.1125 10.5325,189.1143 -82.6493,173.9973 -30.6923,-4.9723 -57.9757,-14.341 -89.1734,-7.9581 -40.3196,8.2403 -76.1606,33.1961 -98.0601,67.9791 -48.8303,77.5595 -16.5511,189.6433 71.1529,222.1224 44.2928,16.3982 104.5137,15.6341 143.8341,-13.342 31.9853,-23.5687 37.1693,-78.2647 80.745,-87.9273 51.6162,-20.9591 89.4673,5.9951 128.0472,37.1693 21.8525,17.6795 47.5959,29.9047 74.1622,38.7444 41.1425,13.7181 84.5537,20.1011 127.624,23.945 46.9494,4.1612 92.9584,4.7372 138.9205,-6.9943 80.1455,-20.5124 150.5461,-70.8003 201.1866,-135.5703 50.1703,-64.0647 84.5655,-145.7149 81.9558,-228.1056 -6.5005,-204.6427 5.4779,173.151 0,0 z"
         inkscape:connector-curvature="0" />
      <path
         id="path7052"
         d="M 6944.6462,1514.4603"
         stroke-miterlimit="10"
         inkscape:connector-curvature="0"
         style="fill:none;stroke:#000000;stroke-width:11.75499153;stroke-miterlimit:10" />
      <path
         inkscape:connector-curvature="0"
         d="m 5124.0095,2262.3246 h 49.0419 c 8.6516,0 16.6685,4.6785 16.6685,16.6803 0,12.0019 -8.0169,16.6804 -16.6685,16.6804 h -131.3738 c -8.6987,0 -16.6921,-4.6785 -16.6921,-16.6804 0,-12.0018 7.9934,-16.6803 16.6921,-16.6803 h 49.0183 v -192.7348 h -49.0183 c -8.6987,0 -16.6921,-4.655 -16.6921,-16.6686 0,-11.9901 7.9934,-16.6686 16.6921,-16.6686 h 131.3738 c 8.6516,0 16.6685,4.6785 16.6685,16.6686 0,12.0136 -8.0169,16.6686 -16.6685,16.6686 h -49.0419 v 192.7348 z"
         id="path7056" />
      <path
         inkscape:connector-curvature="0"
         d="m 5322.0459,2069.578 v 12.0019 c 0,10.6735 -4.6432,16.692 -16.6686,16.692 -11.9901,0 -16.6451,-6.0185 -16.6451,-16.692 v -45.339 h 164.711 v 45.339 c 0,10.6735 -4.6785,16.692 -16.6686,16.692 -12.0018,0 -16.6686,-6.0185 -16.6686,-16.692 v -12.0019 h -32.3497 v 209.4152 c 0,10.6618 -4.655,16.6803 -16.6686,16.6803 -12.0253,0 -16.6921,-6.0185 -16.6921,-16.6803 V 2069.578 h -32.3497 z"
         id="path7058" />
      <path
         inkscape:connector-curvature="0"
         d="m 5673.8258,2145.9384 c 13.6828,0 19.9952,5.3368 19.9952,20.3597 0,14.9876 -6.3124,20.3244 -19.9952,20.3244 h -78.0179 c -13.7063,0 -20.0188,-5.3368 -20.0188,-20.3244 0,-15.0229 6.3125,-20.3597 20.0188,-20.3597 h 78.0179 z"
         id="path7060" />
      <path
         inkscape:connector-curvature="0"
         d="m 5969.2405,2230.3158 c 6.6533,8.6752 11.6609,16.3512 11.6609,27.683 0,24.9911 -19.0078,37.6747 -42.0123,37.6747 h -73.3747 c -12.6483,0 -23.651,-2.3392 -33.631,-10.6735 -9.0043,-7.3351 -15.7047,-19.3487 -15.7047,-31.0214 0,-10.6736 5.9951,-19.9953 17.6795,-19.9953 9.6862,0 15.6577,8.0052 15.6577,16.9977 0,10.0035 5.3485,11.3319 14.6702,11.3319 h 72.3637 c 2.6919,0 11.0262,0.9991 11.0262,-3.9967 0,-2.6684 -4.6549,-7.6643 -6.042,-9.6626 l -114.3644,-147.055 c -7.0059,-9.0161 -11.0026,-15.6694 -11.0026,-27.3421 0,-13.3419 6.3359,-24.6855 17.6795,-32.0324 9.3217,-5.9832 17.0095,-5.9832 27.6712,-5.9832 h 70.7181 c 12.6483,0 23.3454,2.6683 33.0197,11.0144 8.6282,7.6407 15.6577,19.9952 15.6577,31.6562 0,10.6735 -5.325,19.3487 -17.3151,19.3487 -10.0153,0 -16.0221,-6.3595 -16.0221,-15.6812 0,-11.3435 -5.6659,-13.0127 -16.0455,-13.0127 h -70.6475 c -3.6911,0 -11.3671,-0.9875 -11.3671,4.6784 0,3.0093 3.6675,7.006 5.0076,9.0044 l 114.717,147.0667 z"
         id="path7062" />
      <path
         inkscape:connector-curvature="0"
         d="m 6208.6309,2156.2828 v -18.3378 c 0,-11.0261 2.3157,-21.9935 16.022,-21.9935 13.6358,0 15.9986,10.9791 15.9986,21.9935 v 12.9893 c 0,8.0169 -0.7171,13.3419 -4.0202,20.3361 l -80.698,175.7254 c -7.006,15.0111 -10.6736,16.6686 -25.3438,16.6686 h -24.662 c -9.3687,0 -22.0406,-1.9983 -22.0406,-15.9985 0,-13.6711 11.3436,-15.9986 22.0406,-15.9986 h 21.9936 l 23.6981,-49.0183 h -1.681 c -13.3654,0 -14.0002,-6.0068 -19.0313,-16.9977 l -39.3557,-87.0222 c -4.3376,-9.6744 -7.6643,-17.0095 -7.6643,-26.3547 v -14.3294 c 0,-11.0261 2.3393,-21.9935 16.0221,-21.9935 13.6828,0 15.9985,10.9791 15.9985,21.9935 v 18.3378 l 43.0233,94.3691 h 6.9825 l 42.7176,-94.3691 z"
         id="path7064" />
      <path
         inkscape:connector-curvature="0"
         d="m 6379.6543,2180.6274 v 93.0408 c 0,11.0144 -2.3158,22.0053 -15.9986,22.0053 -13.6828,0 -16.022,-11.0026 -16.022,-22.0053 v -134.0657 c 0,-11.661 1.3518,-23.6746 16.022,-23.6746 14.3529,0 15.9986,12.0019 15.9986,23.3337 v 3.6676 0.6818 l 26.0373,-16.9978 c 8.3108,-5.3367 17.3151,-10.6853 27.6712,-10.6853 h 23.6511 c 12.3545,0 20.0187,3.3385 29.6813,11.6845 14.3294,12.331 13.6828,26.002 14.3294,43.3407 l 3.3501,100.6932 c 0.3409,11.3436 -1.3518,24.0272 -15.6576,24.0272 -13.0128,0 -15.6812,-11.0026 -16.0221,-21.6879 l -3.3266,-98.6949 c -0.6701,-19.6779 -2.3393,-27.3422 -21.6527,-27.3422 h -10.6971 c -3.3266,0 -6.6533,0.9875 -10.0152,2.9858 l -47.3491,29.6931 z"
         id="path7066" />
      <path
         inkscape:connector-curvature="0"
         d="m 6699.0844,2115.9279 c 10.9792,0 19.9953,6.0186 31.6797,17.6796 l 5.3015,5.6541 v -67.3443 c 0,-11.0027 2.3393,-22.0054 16.0221,-22.0054 13.6593,0 15.975,11.0144 15.975,22.0054 v 201.41 c 0,11.0144 -2.3157,22.3462 -15.975,22.3462 -12.6719,0 -16.0221,-10.6735 -16.0221,-21.347 v -1.9984 l -6.9824,6.9942 c -10.0153,9.357 -21.0297,16.363 -30.6688,16.363 h -31.0214 c -10.6736,0 -22.6872,-7.3469 -27.3421,-11.3436 l -11.0262,-9.3452 c -13.3419,-11.3436 -17.6795,-19.9952 -17.6795,-37.0047 v -64.3586 c 0,-16.9977 4.3376,-25.6729 17.6795,-37.0165 l 11.0262,-9.3334 c 10.0152,-8.6752 17.3386,-11.3436 30.6922,-11.3436 h 28.3413 z m -55.7069,109.392 c 0,8.9926 0,20.3244 5.0076,24.3446 l 9.6626,7.6642 c 3.9967,3.3267 7.9934,6.3125 12.0019,6.3125 h 22.6871 c 3.9967,0 9.6626,-2.6684 15.6577,-8.0169 l 18.3613,-15.6577 c 4.655,-3.9967 9.2982,-7.9934 9.2982,-13.9884 v -40.3667 c 0,-5.995 -4.6432,-10.0035 -9.2982,-13.9884 l -18.3613,-15.6812 c -5.9951,-5.325 -11.661,-7.9934 -15.6577,-7.9934 h -22.6871 c -4.0202,0 -8.0169,2.9858 -12.0019,6.336 l -9.6626,7.6525 c -5.0076,4.0084 -5.0076,15.352 -5.0076,24.3211 v 39.0618 z"
         id="path7068" />
      <path
         inkscape:connector-curvature="0"
         d="m 6970.131,2263.6529 h 23.992 c 10.697,0 22.0171,2.3393 22.0171,16.0103 0,14.0002 -12.6719,16.0103 -22.0171,16.0103 h -81.3211 c -9.3452,0 -22.0406,-2.0101 -22.0406,-16.0103 0,-13.671 11.3671,-16.0103 22.0406,-16.0103 h 25.2968 v -115.6926 h -25.2968 c -9.3452,0 -22.0406,-2.0219 -22.0406,-16.0103 0,-13.6711 11.3671,-15.9868 22.0406,-15.9868 h 33.6546 c 18.3495,0 23.6745,3.3149 23.6745,22.311 v 125.3787 z m -48.3247,-212.3892 c 0,-11.3435 6.3124,-14.9993 15.0111,-14.9993 h 18.3025 c 8.6752,0 15.0111,3.6675 15.0111,14.9993 v 15.3403 c 0,11.3318 -6.3359,14.9876 -15.0111,14.9876 h -18.3025 c -8.6987,0 -15.0111,-3.6675 -15.0111,-14.9876 v -15.3403 z"
         id="path7070" />
      <path
         inkscape:connector-curvature="0"
         d="m 7244.1987,2128.9525 c 5.6894,-5.0077 13.6828,-13.0128 21.347,-13.0128 9.0044,0 15.9986,7.3469 15.9986,16.3512 0,7.6642 -5.0076,11.3436 -10.65,15.9985 l -62.0076,51.3576 75.326,62.6776 c 5.995,5.0076 11.3435,8.6752 11.3435,16.9977 0,9.0161 -7.0059,16.363 -15.9985,16.363 -6.336,0 -10.3562,-4.0085 -15.0111,-7.6643 l -80.3572,-67.0152 -13.3184,11.9901 v 40.6958 c 0,11.0144 -2.3392,22.0053 -16.022,22.0053 -13.6828,0 -15.9751,-11.0026 -15.9751,-22.0053 v -201.7509 c 0,-11.0027 2.2923,-22.0054 15.9751,-22.0054 13.6828,0 16.022,11.0144 16.022,22.0054 v 118.7254 l 73.3277,-61.7137 z"
         id="path7072" />
      <path
         inkscape:connector-curvature="0"
         d="m 7456.247,2147.9603 c -9.3217,0 -22.0171,-2.0219 -22.0171,-16.0103 0,-13.6711 11.367,-16.0103 22.0171,-16.0103 h 44.0342 c 16.645,0 28.6704,1.681 41.3305,14.3528 12.3545,12.331 14.0002,21.9936 14.3529,38.0039 l 3.3266,108.7102 c 0.3174,9.3217 -4.3376,18.6787 -15.0346,18.6787 -8.2873,0 -16.6451,-7.006 -16.3042,-16.0221 l -21.9936,11.3436 c -9.0278,4.6785 -9.3452,4.6785 -19.7248,4.6785 h -30.6453 c -14.3293,0 -24.662,-1.681 -36.37,-11.3436 -13.3184,-11.0027 -16.645,-22.6871 -16.645,-39.3557 v -14.0002 c 0,-15.3403 3.6675,-25.0264 15.6576,-35.6764 11.0027,-9.6744 23.3689,-12.0018 37.3574,-12.0018 h 68.6727 v -7.3352 c 0,-24.0037 -5.3015,-28.0003 -28.3061,-28.0003 h -39.7083 z m -0.3292,67.3679 c -8.6752,0 -21.3235,2.3157 -21.3235,13.9884 v 21.3353 c 0,10.6735 12.9892,12.9893 20.6417,12.9893 h 35.3591 l 35.359,-18.3378 v -7.006 c 0,-17.6677 -4.9841,-22.9928 -22.6637,-22.9928 h -47.3726 z"
         id="path7074" />
      <path
         inkscape:connector-curvature="0"
         d="m 7730.6555,2235.3234 c 0,17.9969 -0.67,28.3295 21.3471,28.3295 h 16.3277 c 13.0127,0 18.9843,-0.9991 22.3344,-13.9767 1.9984,-7.676 8.0169,-13.0245 16.0456,-13.0245 8.9573,0 16.3042,7.006 16.3042,16.0103 0,9.0043 -5.6659,20.3361 -11.0027,26.6721 -11.661,14.0237 -27.0012,16.3629 -44.0107,16.3629 h -16.3512 c -16.022,0 -30.0105,-3.6675 -41.354,-16.0103 -12.331,-13.671 -11.661,-27.3421 -11.661,-44.6924 v -87.0105 h -10.3561 c -9.2982,0 -21.9936,-2.0219 -21.9936,-16.0103 0,-13.671 11.3435,-15.9868 21.9936,-15.9868 h 10.3561 v -32.7024 c 0,-10.9909 2.3392,-21.9936 15.9985,-21.9936 13.6593,0 15.9986,11.0145 15.9986,21.9936 v 32.7024 h 53.6968 c 10.6735,0 21.9701,2.3158 21.9701,15.9868 0,13.9884 -12.6249,16.0103 -21.9701,16.0103 h -53.6968 v 87.3396 z"
         id="path7076" />
    </g>
  </g>
  <g
     inkscape:label="raster"
     inkscape:groupmode="layer"
     id="layer1"
     transform="translate(0,1055.9055)"
     style="display:inline">
    <path
       id="rect7020"
       style="fill:#000000;fill-opacity:1;stroke:none"
       d="m 0,-1055.9021 2108.2677,0 0,17.7165 -2108.2677,0 z m 0,35.4296 2108.2677,0 0,17.7166 -2108.2677,0 z m 0,35.4331 2108.2677,0 0,17.7165 -2108.2677,0 z m 0,35.433 2108.2677,0 0,17.71655 -2108.2677,0 z m 0,35.43654 2108.2677,0 0,17.71653 -2108.2677,0 z m 0,35.42969 2108.2677,0 0,17.71653 -2108.2677,0 z m 0,35.43304 2108.2677,0 0,17.71654 -2108.2677,0 z m 0,35.43305 2108.2677,0 0,17.71653 -2108.2677,0 z m 0,35.43646 2108.2677,0 0,17.71653 -2108.2677,0 z m 0,35.42969 2108.2677,0 0,17.71653 -2108.2677,0 z m 0,35.43304 2108.2677,0 0,17.71654 -2108.2677,0 z m 0,35.43304 2108.2677,0 0,17.71654 -2108.2677,0 z m 0,35.43659 2108.2677,0 0,17.71653 -2108.2677,0 z m 0,35.42969 2108.2677,0 0,17.71653 -2108.2677,0 z m 0,35.43304 2108.2677,0 0,17.71654 -2108.2677,0 z m 0,35.43305 2108.2677,0 0,17.71653 -2108.2677,0 z m 0,35.43643 2108.2677,0 0,17.71653 -2108.2677,0 z m 0,35.42968 2108.2677,0 0,17.71654 -2108.2677,0 z m 0,35.43305 2108.2677,0 0,17.71653 -2108.2677,0 z m 0,35.43304 2108.2677,0 0,17.71654 -2108.2677,0 z m 0,35.43653 2108.2677,0 0,17.71653 -2108.2677,0 z m 0,35.42968 2108.2677,0 0,17.71654 -2108.2677,0 z m 0,35.43305 2108.2677,0 0,17.71653 -2108.2677,0 z m 0,35.43306 2108.2677,0 0,17.71653 -2108.2677,0 z m 0,35.43646 2108.2677,0 0,17.71654 -2108.2677,0 z m 0,35.42969 2108.2677,0 0,17.71653 -2108.2677,0 z m 0,35.43304 2108.2677,0 0,17.71654 -2108.2677,0 z m 0,35.43305 2108.2677,0 0,17.71653 -2108.2677,0 z m 0,35.43657 2108.2677,0 0,17.71654 -2108.2677,0 z m 0,35.429692 2108.2677,0 0,17.716535 -2108.2677,0 z m 0,35.433045 2108.2677,0 0,17.716536 -2108.2677,0 z m 0,35.433043 2108.2677,0 0,17.716536 -2108.2677,0 z m 0,35.43646 2108.2677,0 0,17.71654 -2108.2677,0 z m 0,35.42969 2108.2677,0 0,17.71654 -2108.2677,0 z m 0,35.43305 2108.2677,0 0,17.71654 -2108.2677,0 z m 0,35.43305 2108.2677,0 0,17.71653 -2108.2677,0 z m 0,35.43652 2108.2677,0 0,17.71654 -2108.2677,0 z m 0,35.42969 2108.2677,0 0,17.71653 -2108.2677,0 z m 0,35.43303 2108.2677,0 0,17.71653 -2108.2677,0 z m 0,35.43304 2108.2677,0 0,17.71654 -2108.2677,0 z m 0,35.43646 2108.2677,0 0,17.71654 -2108.2677,0 z m 0,35.42969 2108.2677,0 0,17.71654 -2108.2677,0 z m 0,35.43305 2108.2677,0 0,17.71653 -2108.2677,0 z m 0,35.43304 2108.2677,0 0,17.71654 -2108.2677,0 z m 0,35.43655 2108.2677,0 0,17.71654 -2108.2677,0 z m 0,35.42969 2108.2677,0 0,17.71654 -2108.2677,0 z m 0,35.43305 2108.2677,0 0,17.71653 -2108.2677,0 z m 0,35.43304 2108.2677,0 0,17.71654 -2108.2677,0 z m 0,35.43646 2108.2677,0 0,17.71654 -2108.2677,0 z m 0,35.42969 2108.2677,0 0,17.71654 -2108.2677,0 z m 0,35.43304 2108.2677,0 0,17.71654 -2108.2677,0 z m 0,35.43305 2108.2677,0 0,17.71653 -2108.2677,0 z m 0,35.43652 2108.2677,0 0,17.71654 -2108.2677,0 z m 0,35.42969 2108.2677,0 0,17.71654 -2108.2677,0 z m 0,35.43304 2108.2677,0 0,17.71654 -2108.2677,0 z m 0,35.43305 2108.2677,0 0,17.71653 -2108.2677,0 z m 0,35.43646 2108.2677,0 0,17.71654 -2108.2677,0 z m 0,35.42967 2108.2677,0 0,17.7166 L 0,981.496 z m 0,35.4331 2108.2677,0 0,17.7165 -2108.2677,0 z m 0,35.433 2108.2677,0 0,17.7165 -2108.2677,0 z"
       inkscape:connector-curvature="0" />
  </g>
</svg>
