<?xml version="1.0" encoding="UTF-8" standalone="no"?>
<!-- Created with Inkscape (http://www.inkscape.org/) -->

<svg
   xmlns:dc="http://purl.org/dc/elements/1.1/"
   xmlns:cc="http://creativecommons.org/ns#"
   xmlns:rdf="http://www.w3.org/1999/02/22-rdf-syntax-ns#"
   xmlns:svg="http://www.w3.org/2000/svg"
   xmlns="http://www.w3.org/2000/svg"
   xmlns:sodipodi="http://sodipodi.sourceforge.net/DTD/sodipodi-0.dtd"
   xmlns:inkscape="http://www.inkscape.org/namespaces/inkscape"
   width="2108.2676"
   height="2179.1404"
   id="svg2"
   version="1.1"
   inkscape:version="0.48.5 r10040"
   sodipodi:docname="Leuchtkasten595x595-hinten.hpgl">
  <defs
     id="defs4" />
  <sodipodi:namedview
     id="base"
     pagecolor="#ffffff"
     bordercolor="#666666"
     borderopacity="1.0"
     inkscape:pageopacity="0.0"
     inkscape:pageshadow="2"
     inkscape:zoom="0.35"
     inkscape:cx="1138.85"
     inkscape:cy="1220.9987"
     inkscape:document-units="mm"
     inkscape:current-layer="layer1"
     showgrid="false"
     units="mm"
     inkscape:window-width="1653"
     inkscape:window-height="848"
     inkscape:window-x="0"
     inkscape:window-y="21"
     inkscape:window-maximized="0"
     fit-margin-top="0"
     fit-margin-left="0"
     fit-margin-right="0"
     fit-margin-bottom="0" />
  <metadata
     id="metadata7">
    <rdf:RDF>
      <cc:Work
         rdf:about="">
        <dc:format>image/svg+xml</dc:format>
        <dc:type
           rdf:resource="http://purl.org/dc/dcmitype/StillImage" />
        <dc:title></dc:title>
      </cc:Work>
    </rdf:RDF>
  </metadata>
  <g
     inkscape:label="Layer 1"
     inkscape:groupmode="layer"
     id="layer1"
     transform="translate(758.1357,420.06512)">
    <path
       inkscape:connector-curvature="0"
       id="path22"
       style="fill:#231f20;fill-opacity:1;fill-rule:nonzero;stroke:none"
       d="m 1350.132,1755.5248 -2108.2677,0 0,3.5504 2108.2677,0 0,-3.5504 z m 0,-7.0869 -2108.2677,0 0,3.5491 2108.2677,0 0,-3.5491 z m 0,-7.0756 -2108.2677,0 0,3.5377 2108.2677,0 0,-3.5377 z m 0,-7.0869 -2108.2677,0 0,3.5366 2108.2677,0 0,-3.5366 z m 0,-7.0881 -2108.2677,0 0,3.5377 2108.2677,0 0,-3.5377 z m 0,-7.0869 -2108.2677,0 0,3.5364 2108.2677,0 0,-3.5364 z m 0,-7.0882 -2108.2677,0 0,3.5378 2108.2677,0 0,-3.5378 z m 0,-7.0869 -2108.2677,0 0,3.5367 2108.2677,0 0,-3.5367 z m 0,-7.088 -2108.2677,0 0,3.5376 2108.2677,0 0,-3.5376 z m 0,-7.0871 -2108.2677,0 0,3.5378 2108.2677,0 0,-3.5378 z m 0,-7.088 -2108.2677,0 0,3.5503 2108.2677,0 0,-3.5503 z m 0,-7.0869 -2108.2677,0 0,3.549 2108.2677,0 0,-3.549 z m 0,-7.0883 -2108.2677,0 0,3.5504 2108.2677,0 0,-3.5504 z m 0,-7.0868 -2108.2677,0 0,3.5492 2108.2677,0 0,-3.5492 z m 0,-7.088 -2108.2677,0 0,3.5501 2108.2677,0 0,-3.5501 z m 0,-7.0872 -2108.2677,0 0,3.5504 2108.2677,0 0,-3.5504 z m 0,-7.088 -2108.2677,0 0,3.5504 2108.2677,0 0,-3.5504 z m 0,-7.0742 -2108.2677,0 0,3.5375 2108.2677,0 0,-3.5375 z m 0,-7.0884 -2108.2677,0 0,3.5379 2108.2677,0 0,-3.5379 z m 0,-7.0867 -2108.2677,0 0,3.5377 2108.2677,0 0,-3.5377 z m 0,-7.088 -2108.2677,0 0,3.5375 2108.2677,0 0,-3.5375 z m 0,-7.0873 -2108.2677,0 0,3.5379 2108.2677,0 0,-3.5379 z m 0,-7.088 -2108.2677,0 0,3.5379 2108.2677,0 0,-3.5379 z m 0,-7.0867 -2108.2677,0 0,3.5501 2108.2677,0 0,-3.5501 z m 0,-7.0884 -2108.2677,0 0,3.5505 2108.2677,0 0,-3.5505 z m 0,-7.0868 -2108.2677,0 0,3.5504 2108.2677,0 0,-3.5504 z m 0,-7.0881 -2108.2677,0 0,3.5503 2108.2677,0 0,-3.5503 z m 0,-7.0871 -2108.2677,0 0,3.5505 2108.2677,0 0,-3.5505 z m 0,-7.088 -2108.2677,0 0,3.5505 2108.2677,0 0,-3.5505 z m 0,-7.0743 -2108.2677,0 0,3.5377 2108.2677,0 0,-3.5377 z m 0,-7.0882 -2108.2677,0 0,3.5379 2108.2677,0 0,-3.5379 z m 0,-7.0869 -2108.2677,0 0,3.5379 2108.2677,0 0,-3.5379 z m 0,-7.088 -2108.2677,0 0,3.5376 2108.2677,0 0,-3.5376 z m 0,-7.0871 -2108.2677,0 0,3.5379 2108.2677,0 0,-3.5379 z m 0,-7.088 -2108.2677,0 0,3.5379 2108.2677,0 0,-3.5379 z m 0,-7.0869 -2108.2677,0 0,3.5376 2108.2677,0 0,-3.5376 z m 0,-7.0882 -2108.2677,0 0,3.5378 2108.2677,0 0,-3.5378 z m 0,-7.0869 -2108.2677,0 0,3.5379 2108.2677,0 0,-3.5379 z m 0,-7.0869 -2108.2677,0 0,3.549 2108.2677,0 0,-3.549 z m 0,-7.0882 -2108.2677,0 0,3.5503 2108.2677,0 0,-3.5503 z m 0,-7.088 -2108.2677,0 0,3.5503 2108.2677,0 0,-3.5503 z m 0,-7.0872 -2108.2677,0 0,3.5504 2108.2677,0 0,-3.5504 z m 0,-7.0857 -2108.2677,0 0,3.5472 2108.2677,0 0,-3.5472 z m 0,-7.0885 -2108.2677,0 0,3.5501 2108.2677,0 0,-3.5501 z m 0,-7.0886 -2108.2677,0 0,3.5501 2108.2677,0 0,-3.5501 z m 0,-7.074 -2108.2677,0 0,3.5385 2108.2677,0 0,-3.5385 z m 0,-7.0887 -2108.2677,0 0,3.5385 2108.2677,0 0,-3.5385 z m 0,-7.0856 -2108.2677,0 0,3.5355 2108.2677,0 0,-3.5355 z m 0,-7.0886 -2108.2677,0 0,3.5385 2108.2677,0 0,-3.5385 z m 0,-7.0885 -2108.2677,0 0,3.5384 2108.2677,0 0,-3.5384 z m 0,-7.0858 -2108.2677,0 0,3.5355 2108.2677,0 0,-3.5355 z m 0,-7.0886 -2108.2677,0 0,3.5385 2108.2677,0 0,-3.5385 z m 0,-7.0856 -2108.2677,0 0,3.5355 2108.2677,0 0,-3.5355 z m 0,-7.0886 -2108.2677,0 0,3.5385 2108.2677,0 0,-3.5385 z m 0,-7.0885 -2108.2677,0 0,3.5501 2108.2677,0 0,-3.5501 z m 0,-7.0858 -2108.2677,0 0,3.5501 2108.2677,0 0,-3.5501 z m 0,-7.0886 -2108.2677,0 0,3.5502 2108.2677,0 0,-3.5502 z m 0,-7.0885 -2108.2677,0 0,3.5501 2108.2677,0 0,-3.5501 z m 0,-7.074 -2108.2677,0 0,3.5355 2108.2677,0 0,-3.5355 z m 0,-7.0886 -2108.2677,0 0,3.5385 2108.2677,0 0,-3.5385 z m 0,-7.0857 -2108.2677,0 0,3.5355 2108.2677,0 0,-3.5355 z m 0,-7.0886 -2108.2677,0 0,3.5385 2108.2677,0 0,-3.5385 z m 0,-7.0856 -2108.2677,0 0,3.5355 2108.2677,0 0,-3.5355 z m 0,-7.0886 -2108.2677,0 0,3.5385 2108.2677,0 0,-3.5385 z m 0,-7.0887 -2108.2677,0 0,3.5385 2108.2677,0 0,-3.5385 z m 0,-7.0886 -2108.2677,0 0,3.5385 2108.2677,0 0,-3.5385 z m 0,-7.0856 -2108.2677,0 0,3.5385 2108.2677,0 0,-3.5385 z m 0,-7.0886 -2108.2677,0 0,3.5385 2108.2677,0 0,-3.5385 z m 0,-7.0857 -2108.2677,0 0,3.5502 2108.2677,0 0,-3.5502 z m 0,-7.0886 -2108.2677,0 0,3.5501 2108.2677,0 0,-3.5501 z m 0,-7.0856 -2108.2677,0 0,3.5472 2108.2677,0 0,-3.5472 z m 0,-7.0886 -2108.2677,0 0,3.5501 2108.2677,0 0,-3.5501 z m 0,-7.0887 -2108.2677,0 0,3.5502 2108.2677,0 0,-3.5502 z m 0,-7.0885 -2108.2677,0 0,3.5502 2108.2677,0 0,-3.5502 z m 0,-7.074 -2108.2677,0 0,3.5384 2108.2677,0 0,-3.5384 z m 0,-7.0886 -2108.2677,0 0,3.5385 2108.2677,0 0,-3.5385 z m 0,-7.0856 -2108.2677,0 0,3.5384 2108.2677,0 0,-3.5384 z m 0,-7.0886 -2108.2677,0 0,3.5385 2108.2677,0 0,-3.5385 z m 0,-7.0857 -2108.2677,0 0,3.5384 2108.2677,0 0,-3.5384 z m 0,-7.0886 -2108.2677,0 0,3.5384 2108.2677,0 0,-3.5384 z m 0,-7.0886 -2108.2677,0 0,3.5385 2108.2677,0 0,-3.5385 z m 0,-7.0856 -2108.2677,0 0,3.5355 2108.2677,0 0,-3.5355 z m 0,-7.0887 -2108.2677,0 0,3.5385 2108.2677,0 0,-3.5385 z m 0,-7.0886 -2108.2677,0 0,3.5385 2108.2677,0 0,-3.5385 z m 0,-7.0856 -2108.2677,0 0,3.5501 2108.2677,0 0,-3.5501 z m 0,-7.0886 -2108.2677,0 0,3.5501 2108.2677,0 0,-3.5501 z m 0,-7.074 -2108.2677,0 0,3.5385 2108.2677,0 0,-3.5385 z m 0,-7.0885 -2108.2677,0 0,3.5383 2108.2677,0 0,-3.5383 z m 0,-7.0858 -2108.2677,0 0,3.5355 2108.2677,0 0,-3.5355 z m 0,-7.0886 -2108.2677,0 0,3.5385 2108.2677,0 0,-3.5385 z m 0,-7.0885 -2108.2677,0 0,3.5384 2108.2677,0 0,-3.5384 z m 0,-7.0858 -2108.2677,0 0,3.5357 2108.2677,0 0,-3.5357 z m 0,-7.0885 -2108.2677,0 0,3.5384 2108.2677,0 0,-3.5384 z m 0,-7.0886 -2108.2677,0 0,3.5384 2108.2677,0 0,-3.5384 z m 0,-7.0857 -2108.2677,0 0,3.5385 2108.2677,0 0,-3.5385 z m 0,-7.0885 -2108.2677,0 0,3.5383 2108.2677,0 0,-3.5383 z m 0,-7.0858 -2108.2677,0 0,3.5356 2108.2677,0 0,-3.5356 z m 0,-7.0885 -2108.2677,0 0,3.5501 2108.2677,0 0,-3.5501 z m 0,-7.0886 -2108.2677,0 0,3.5501 2108.2677,0 0,-3.5501 z m 0,-7.0856 -2108.2677,0 0,3.5501 2108.2677,0 0,-3.5501 z m 0,-7.0887 -2108.2677,0 0,3.5502 2108.2677,0 0,-3.5502 z m 0,-7.0857 -2108.2677,0 0,3.5472 2108.2677,0 0,-3.5472 z m 0,-7.0769 -2108.2677,0 0,3.5385 2108.2677,0 0,-3.5385 z m 0,-7.0856 -2108.2677,0 0,3.5355 2108.2677,0 0,-3.5355 z m 0,-7.0886 -2108.2677,0 0,3.5385 2108.2677,0 0,-3.5385 z m 0,-7.0887 -2108.2677,0 0,3.5385 2108.2677,0 0,-3.5385 z m 0,-7.0856 -2108.2677,0 0,3.5355 2108.2677,0 0,-3.5355 z m 0,-7.08861 -2108.2677,0 0,3.53851 2108.2677,0 0,-3.53851 z m 0,-7.0886 -2108.2677,0 0,3.5385 2108.2677,0 0,-3.5385 z m 0,-7.0857 -2108.2677,0 0,3.5355 2108.2677,0 0,-3.5355 z m 0,-7.0886 -2108.2677,0 0,3.5385 2108.2677,0 0,-3.5385 z m 0,-7.0856 -2108.2677,0 0,3.5355 2108.2677,0 0,-3.5355 z m 0,-7.0886 -2108.2677,0 0,3.5385 2108.2677,0 0,-3.5385 z m 0,-7.0885 -2108.2677,0 0,3.5501 2108.2677,0 0,-3.5501 z m 0,-7.0858 -2108.2677,0 0,3.5501 2108.2677,0 0,-3.5501 z m 0,-7.0886 -2108.2677,0 0,3.5502 2108.2677,0 0,-3.5502 z m 0,-7.0885 -2108.2677,0 0,3.5501 2108.2677,0 0,-3.5501 z m 0,-7.074 -2108.2677,0 0,3.5384 2108.2677,0 0,-3.5384 z m 0,-7.0886 -2108.2677,0 0,3.5385 2108.2677,0 0,-3.5385 z m 0,-7.0857 -2108.2677,0 0,3.5384 2108.2677,0 0,-3.5384 z m 0,-7.0886 -2108.2677,0 0,3.5385 2108.2677,0 0,-3.5385 z m 0,-7.0856 -2108.2677,0 0,3.5355 2108.2677,0 0,-3.5355 z m 0,-7.0886 -2108.2677,0 0,3.5383 2108.2677,0 0,-3.5383 z m 0,-7.0887 -2108.2677,0 0,3.5385 2108.2677,0 0,-3.5385 z m 0,-7.0856 -2108.2677,0 0,3.5355 2108.2677,0 0,-3.5355 z m 0,-7.0886 -2108.2677,0 0,3.5501 2108.2677,0 0,-3.5501 z m 0,-7.0886 -2108.2677,0 0,3.5501 2108.2677,0 0,-3.5501 z m 0,-7.0857 -2108.2677,0 0,3.5502 2108.2677,0 0,-3.5502 z m 0,-7.0886 -2108.2677,0 0,3.5501 2108.2677,0 0,-3.5501 z m 0,-7.0856 -2108.2677,0 0,3.5501 2108.2677,0 0,-3.5501 z m 0,-7.0886 -2108.2677,0 0,3.5501 2108.2677,0 0,-3.5501 z m 0,-7.0828 -2108.2677,0 0,3.5443 2108.2677,0 0,-3.5443 z m 0,-7.0856 -2108.2677,0 0,3.5442 2108.2677,0 0,-3.5442 z m 0,-7.0886 -2108.2677,0 0,3.5442 2108.2677,0 0,-3.5442 z m 0,-7.0828 -2108.2677,0 0,3.5414 2108.2677,0 0,-3.5414 z m 0,-7.0886 -2108.2677,0 0,3.5444 2108.2677,0 0,-3.5444 z m 0,-7.0885 -2108.2677,0 0,3.5442 2108.2677,0 0,-3.5442 z m 0,-7.0858 -2108.2677,0 0,3.5414 2108.2677,0 0,-3.5414 z m 0,-7.0856 -2108.2677,0 0,3.5443 2108.2677,0 0,-3.5443 z m 0,-7.0857 -2108.2677,0 0,3.5413 2108.2677,0 0,-3.5413 z m 0,-7.0885 -2108.2677,0 0,3.5413 2108.2677,0 0,-3.5413 z m 0,-7.0858 -2108.2677,0 0,3.5444 2108.2677,0 0,-3.5444 z m 0,-7.0856 -2108.2677,0 0,3.5414 2108.2677,0 0,-3.5414 z m 0,-7.0886 -2108.2677,0 0,3.5413 2108.2677,0 0,-3.5413 z m 0,-7.0857 -2108.2677,0 0,3.5414 2108.2677,0 0,-3.5414 z m 0,-7.0856 -2108.2677,0 0,3.5413 2108.2677,0 0,-3.5413 z m 0,-7.0886 -2108.2677,0 0,3.5442 2108.2677,0 0,-3.5442 z m 0,-7.0858 -2108.2677,0 0,3.5414 2108.2677,0 0,-3.5414 z m 0,-7.0856 -2108.2677,0 0,3.5414 2108.2677,0 0,-3.5414 z m 0,-7.0886 -2108.2677,0 0,3.5444 2108.2677,0 0,-3.5444 z m 0,-7.0856 -2108.2677,0 0,3.5442 2108.2677,0 0,-3.5442 z m 0,-7.0857 -2108.2677,0 0,3.5414 2108.2677,0 0,-3.5414 z m 0,-7.0886 -2108.2677,0 0,3.5443 2108.2677,0 0,-3.5443 z m 0,-7.0857 -2108.2677,0 0,3.5413 2108.2677,0 0,-3.5413 z m 0,-7.0857 -2108.2677,0 0,3.5414 2108.2677,0 0,-3.5414 z m 0,-7.0886 -2108.2677,0 0,3.5444 2108.2677,0 0,-3.5444 z m 0,-7.0856 -2108.2677,0 0,3.5414 2108.2677,0 0,-3.5414 z m 0,-7.0856 -2108.2677,0 0,3.5413 2108.2677,0 0,-3.5413 z m 0,-7.0858 -2108.2677,0 0,3.5414 2108.2677,0 0,-3.5414 z m 0,-7.0885 -2108.2677,0 0,3.5413 2108.2677,0 0,-3.5413 z m 0,-7.0886 -2108.2677,0 0,3.5442 2108.2677,0 0,-3.5442 z m 0,-7.0858 -2108.2677,0 0,3.5444 2108.2677,0 0,-3.5444 z m 0,-7.0856 -2108.2677,0 0,3.5414 2108.2677,0 0,-3.5414 z m 0,-7.0886 -2108.2677,0 0,3.5444 2108.2677,0 0,-3.5444 z m 0,-7.0856 -2108.2677,0 0,3.5442 2108.2677,0 0,-3.5442 z m 0,-7.0857 -2108.2677,0 0,3.5414 2108.2677,0 0,-3.5414 z m 0,-7.0857 -2108.2677,0 0,3.5414 2108.2677,0 0,-3.5414 z m 0,-7.0887 -2108.2677,0 0,3.5444 2108.2677,0 0,-3.5444 z m 0,-7.0856 -2108.2677,0 0,3.5414 2108.2677,0 0,-3.5414 z m 0,-7.0886 -2108.2677,0 0,3.5414 2108.2677,0 0,-3.5414 z m 0,-7.0856 -2108.2677,0 0,3.5442 2108.2677,0 0,-3.5442 z m 0,-7.0857 -2108.2677,0 0,3.5414 2108.2677,0 0,-3.5414 z m 0,-7.0857 -2108.2677,0 0,3.5414 2108.2677,0 0,-3.5414 z m 0,-7.0856 -2108.2677,0 0,3.5413 2108.2677,0 0,-3.5413 z m 0,-7.0887 -2108.2677,0 0,3.5414 2108.2677,0 0,-3.5414 z m 0,-7.0856 -2108.2677,0 0,3.5414 2108.2677,0 0,-3.5414 z m 0,-7.0886 -2108.2677,0 0,3.5442 2108.2677,0 0,-3.5442 z m 0,-7.0856 -2108.2677,0 0,3.5442 2108.2677,0 0,-3.5442 z m 0,-7.0887 -2108.2677,0 0,3.5444 2108.2677,0 0,-3.5444 z m 0,-7.0856 -2108.2677,0 0,3.5443 2108.2677,0 0,-3.5443 z m 0,-7.0857 -2108.2677,0 0,3.5443 2108.2677,0 0,-3.5443 z m 0,-7.0885 -2108.2677,0 0,3.5442 2108.2677,0 0,-3.5442 z m 0,-7.0828 -2108.2677,0 0,3.5414 2108.2677,0 0,-3.5414 z m 0,-7.0886 -2108.2677,0 0,3.5442 2108.2677,0 0,-3.5442 z m 0,-7.0856 -2108.2677,0 0,3.5413 2108.2677,0 0,-3.5413 z m 0,-7.0887 -2108.2677,0 0,3.5443 2108.2677,0 0,-3.5443 z m 0,-7.0856 -2108.2677,0 0,3.5414 2108.2677,0 0,-3.5414 z m 0,-7.0857 -2108.2677,0 0,3.5413 2108.2677,0 0,-3.5413 z m 0,-7.0857 -2108.2677,0 0,3.5414 2108.2677,0 0,-3.5414 z m 0,-7.0857 -2108.2677,0 0,3.5414 2108.2677,0 0,-3.5414 z m 0,-7.0885 -2108.2677,0 0,3.5414 2108.2677,0 0,-3.5414 z m 0,-7.0858 -2108.2677,0 0,3.5414 2108.2677,0 0,-3.5414 z m 0,-7.0856 -2108.2677,0 0,3.5414 2108.2677,0 0,-3.5414 z m 0,-7.0886 -2108.2677,0 0,3.5414 2108.2677,0 0,-3.5414 z m 0,-7.0856 -2108.2677,0 0,3.5413 2108.2677,0 0,-3.5413 z m 0,-7.0887 -2108.2677,0 0,3.5444 2108.2677,0 0,-3.5444 z m 0,-7.0856 -2108.2677,0 0,3.5414 2108.2677,0 0,-3.5414 z m 0,-7.0886 -2108.2677,0 0,3.5442 2108.2677,0 0,-3.5442 z m 0,-7.0856 -2108.2677,0 0,3.5442 2108.2677,0 0,-3.5442 z m 0,-7.0858 -2108.2677,0 0,3.5414 2108.2677,0 0,-3.5414 z m 0,-7.0885 -2108.2677,0 0,3.5443 2108.2677,0 0,-3.5443 z m 0,-7.0857 -2108.2677,0 0,3.5443 2108.2677,0 0,-3.5443 z m 0,-7.0857 -2108.2677,0 0,3.5414 2108.2677,0 0,-3.5414 z m 0,-7.0857 -2108.2677,0 0,3.5414 2108.2677,0 0,-3.5414 z m 0,-7.0856 -2108.2677,0 0,3.5413 2108.2677,0 0,-3.5413 z m 0,-7.0887 -2108.2677,0 0,3.5414 2108.2677,0 0,-3.5414 z m 0,-7.0856 -2108.2677,0 0,3.5414 2108.2677,0 0,-3.5414 z m 0,-7.0856 -2108.2677,0 0,3.5414 2108.2677,0 0,-3.5414 z m 0,-7.0886 -2108.2677,0 0,3.5413 2108.2677,0 0,-3.5413 z m 0,-7.0887 -2108.2677,0 0,3.5444 2108.2677,0 0,-3.5444 z m 0,-7.08271 -2108.2677,0 0,3.54138 2108.2677,0 0,-3.54138 z m 0,-7.08862 -2108.2677,0 0,3.54437 2108.2677,0 0,-3.54437 z m 0,-7.08563 -2108.2677,0 0,3.54138 2108.2677,0 0,-3.54138 z m 0,-7.08562 -2108.2677,0 0,3.54137 2108.2677,0 0,-3.54137 z m 0,-7.08863 -2108.2677,0 0,3.54425 2108.2677,0 0,-3.54425 z m 0,-7.08562 -2108.2677,0 0,3.54137 2108.2677,0 0,-3.54137 z m 0,-7.08575 -2108.2677,0 0,3.54137 2108.2677,0 0,-3.54137 z m 0,-7.08863 -2108.2677,0 0,3.54138 2108.2677,0 0,-3.54138 z m 0,-7.08562 -2108.2677,0 0,3.54137 2108.2677,0 0,-3.54137 z m 0,-7.08563 -2108.2677,0 0,3.54138 2108.2677,0 0,-3.54138 z m 0,-7.08862 -2108.2677,0 0,3.54425 2108.2677,0 0,-3.54425 z m 0,-7.08563 -2108.2677,0 0,3.54138 2108.2677,0 0,-3.54138 z m 0,-7.08575 -2108.2677,0 0,3.54138 2108.2677,0 0,-3.54138 z m 0,-7.08562 -2108.2677,0 0,3.54137 2108.2677,0 0,-3.54137 z m 0,-7.08863 -2108.2677,0 0,3.54138 2108.2677,0 0,-3.54138 z m 0,-7.08562 -2108.2677,0 0,3.54137 2108.2677,0 0,-3.54137 z m 0,-7.08863 -2108.2677,0 0,3.54425 2108.2677,0 0,-3.54425 z m 0,-7.08562 -2108.2677,0 0,3.54137 2108.2677,0 0,-3.54137 z m 0,-7.08575 -2108.2677,0 0,3.54137 2108.2677,0 0,-3.54137 z m 0,-7.0885 -2108.2677,0 0,3.54425 2108.2677,0 0,-3.54425 z m 0,-7.08575 -2108.2677,0 0,3.54437 2108.2677,0 0,-3.54437 z m 0,-7.08563 -2108.2677,0 0,3.54138 2108.2677,0 0,-3.54138 z m 0,-7.08862 -2108.2677,0 0,3.54437 2108.2677,0 0,-3.54437 z m 0,-7.08563 -2108.2677,0 0,3.54138 2108.2677,0 0,-3.54138 z m 0,-7.085754 -2108.2677,0 0,3.541384 2108.2677,0 0,-3.541384 z m 0,-7.0885 -2108.2677,0 0,3.54425 2108.2677,0 0,-3.54425 z m 0,-7.08575 -2108.2677,0 0,3.54138 2108.2677,0 0,-3.54138 z m 0,-7.08562 -2108.2677,0 0,3.54137 2108.2677,0 0,-3.54137 z m 0,-7.08563 -2108.2677,0 0,3.54138 2108.2677,0 0,-3.54138 z m 0,-7.088621 -2108.2677,0 0,3.54137 2108.2677,0 0,-3.54137 z m 0,-7.08575 -2108.2677,0 0,3.54137 2108.2677,0 0,-3.54137 z m 0,-7.08563 -2108.2677,0 0,3.54138 2108.2677,0 0,-3.54138 z m 0,-7.08862 -2108.2677,0 0,3.54437 2108.2677,0 0,-3.54437 z m 0,-7.08563 -2108.2677,0 0,3.54138 2108.2677,0 0,-3.54138 z m 0,-7.08562 -2108.2677,0 0,3.54137 2108.2677,0 0,-3.54137 z m 0,-7.08863 -2108.2677,0 0,3.54425 2108.2677,0 0,-3.54425 z m 0,-7.08562 -2108.2677,0 0,3.54425 2108.2677,0 0,-3.54425 z m 0,-7.0857503 -2108.2677,0 0,3.54137 2108.2677,0 0,-3.54137 z m 0,-7.08863 -2108.2677,0 0,3.54138 2108.2677,0 0,-3.54138 z m 0,-7.08562 -2108.2677,0 0,3.54137 2108.2677,0 0,-3.54137 z m 0,-7.0886297 -2108.2677,0 0,3.54438 2108.2677,0 0,-3.54438 z m 0,-7.08562 -2108.2677,0 0,3.54137 2108.2677,0 0,-3.54137 z m 0,-7.08563 -2108.2677,0 0,3.54425 2108.2677,0 0,-3.54425 z m 0,-7.08575 -2108.2677,0 0,3.54138 2108.2677,0 0,-3.54138 z m 0,-7.0885 -2108.2677,0 0,3.54425 2108.2677,0 0,-3.54425 z m 0,-7.08575 -2108.2677,0 0,3.54138 2108.2677,0 0,-3.54138 z m 0,-7.08562 -2108.2677,0 0,3.54137 2108.2677,0 0,-3.54137 z m 0,-7.08863 -2108.2677,0 0,3.54425 2108.2677,0 0,-3.54425 z m 0,-7.08562 -2108.2677,0 0,3.54137 2108.2677,0 0,-3.54137 z m 0,-7.08575 -2108.2677,0 0,3.54137 2108.2677,0 0,-3.54137 z m 0,-7.0885 -2108.2677,0 0,3.54425 2108.2677,0 0,-3.54425 z m 0,-7.08575 -2108.2677,0 0,3.54437 2108.2677,0 0,-3.54437 z m 0,-7.085635 -2108.2677,0 0,3.541385 2108.2677,0 0,-3.541385 z m 0,-7.08862 -2108.2677,0 0,3.54425 2108.2677,0 0,-3.54425 z m 0,-7.08563 -2108.2677,0 0,3.54425 2108.2677,0 0,-3.54425 z m 0,-7.08575 -2108.2677,0 0,3.54138 2108.2677,0 0,-3.54138 z m 0,-7.0885 -2108.2677,0 0,3.54425 2108.2677,0 0,-3.54425 z m 0,-7.08574 -2108.2677,0 0,3.54137 2108.2677,0 0,-3.54137 z m 0,-7.08562 -2108.2677,0 0,3.54425 2108.2677,0 0,-3.54425 z m 0,-7.08863 -2108.2677,0 0,3.54438 2108.2677,0 0,-3.54438 z m 0,-7.08562 -2108.2677,0 0,3.54425 2108.2677,0 0,-3.54425 z m 0,-7.08575 -2108.2677,0 0,3.54437 2108.2677,0 0,-3.54437 z m 0,-7.08563 -2108.2677,0 0,3.54138 2108.2677,0 0,-3.54138 z m 0,-7.08862 -2108.2677,0 0,3.54137 2108.2677,0 0,-3.54137 z m 0,-7.08563 -2108.2677,0 0,3.54138 2108.2677,0 0,-3.54138 z m 0,-7.08562 -2108.2677,0 0,3.54137 2108.2677,0 0,-3.54137 z m 0,-7.08863 -2108.2677,0 0,3.54425 2108.2677,0 0,-3.54425 z m 0,-7.08562 -2108.2677,0 0,3.54425 2108.2677,0 0,-3.54425 z m 0,-7.08575 -2108.2677,0 0,3.54137 2108.2677,0 0,-3.54137 z m 0,-7.08863 -2108.2677,0 0,3.54438 2108.2677,0 0,-3.54438 z m 0,-7.08562 -2108.2677,0 0,3.54425 2108.2677,0 0,-3.54425 z m 0,-7.08863 -2108.2677,0 0,3.54438 2108.2677,0 0,-3.54438 z m 0,-7.08562 -2108.2677,0 0,3.54425 2108.2677,0 0,-3.54425 z m 0,-7.08563 -2108.2677,0 0,3.54425 2108.2677,0 0,-3.54425 z m 0,-7.08575 -2108.2677,0 0,3.54138 2108.2677,0 0,-3.54138 z m 0,-7.08862 -2108.2677,0 0,3.54437 2108.2677,0 0,-3.54437 z m 0,-7.08563 -2108.2677,0 0,3.54425 2108.2677,0 0,-3.54425 z m 0,-7.08562 -2108.2677,0 0,3.54137 2108.2677,0 0,-3.54137 z m 0,-7.08863 -2108.2677,0 0,3.54425 2108.2677,0 0,-3.54425 z m 0,-7.08562 -2108.2677,0 0,3.54137 2108.2677,0 0,-3.54137 z m 0,-7.08575 -2108.2677,0 0,3.54137 2108.2677,0 0,-3.54137 z m 0,-7.0885 -2108.2677,0 0,3.54425 2108.2677,0 0,-3.54425 z m 0,-7.08275 -2108.2677,0 0,3.54137 2108.2677,0 0,-3.54137 z m 0,-7.08863 -2108.2677,0 0,3.54138 2108.2677,0 0,-3.54138 z m 0,-7.08575 -2108.2677,0 0,3.54137 2108.2677,0 0,-3.54137 z m 0,-7.08563 -2108.2677,0 0,3.54138 2108.2677,0 0,-3.54138 z m 0,-7.08862 -2108.2677,0 0,3.54437 2108.2677,0 0,-3.54437 z m 0,-7.0885 -2108.2677,0 0,3.54425 2108.2677,0 0,-3.54425 z m 0,-7.08275 -2108.2677,0 0,3.54137 2108.2677,0 0,-3.54137 z m 0,-7.08863 -2108.2677,0 0,3.54138 2108.2677,0 0,-3.54138 z m 0,-7.08862 -2108.2677,0 0,3.54425 2108.2677,0 0,-3.54425 z m 0,-7.08563 -2108.2677,0 0,3.54425 2108.2677,0 0,-3.54425 z m 0,-7.08575 -2108.2677,0 0,3.54138 2108.2677,0 0,-3.54138 z m 0,-7.08562 -2108.2677,0 0,3.54137 2108.2677,0 0,-3.54137 z m 0,-7.08863 -2108.2677,0 0,3.54438 2108.2677,0 0,-3.54438 z m 0,-7.08562 -2108.2677,0 0,3.54137 2108.2677,0 0,-3.54137 z m 0,-7.08563 -2108.2677,10e-6 0,3.54137 2108.2677,0 0,-3.54137 z m 0,-3.54437 -2108.2677,0 0,-3.54425 2108.2677,0 0,3.54425" />
  </g>
</svg>
