<?xml version="1.0" encoding="UTF-8" standalone="no"?>
<!-- Created with Inkscape (http://www.inkscape.org/) -->

<svg
   xmlns:dc="http://purl.org/dc/elements/1.1/"
   xmlns:cc="http://creativecommons.org/ns#"
   xmlns:rdf="http://www.w3.org/1999/02/22-rdf-syntax-ns#"
   xmlns:svg="http://www.w3.org/2000/svg"
   xmlns="http://www.w3.org/2000/svg"
   xmlns:sodipodi="http://sodipodi.sourceforge.net/DTD/sodipodi-0.dtd"
   xmlns:inkscape="http://www.inkscape.org/namespaces/inkscape"
   width="1052.3622"
   height="744.09448"
   id="svg2"
   version="1.1"
   inkscape:version="0.48.5 r10040"
   sodipodi:docname="New document 3">
  <defs
     id="defs4" />
  <sodipodi:namedview
     id="base"
     pagecolor="#ffffff"
     bordercolor="#666666"
     borderopacity="1.0"
     inkscape:pageopacity="0.0"
     inkscape:pageshadow="2"
     inkscape:zoom="0.35"
     inkscape:cx="380.71429"
     inkscape:cy="514.28571"
     inkscape:document-units="mm"
     inkscape:current-layer="layer1"
     showgrid="false"
     units="mm"
     inkscape:window-width="1653"
     inkscape:window-height="848"
     inkscape:window-x="0"
     inkscape:window-y="21"
     inkscape:window-maximized="0" />
  <metadata
     id="metadata7">
    <rdf:RDF>
      <cc:Work
         rdf:about="">
        <dc:format>image/svg+xml</dc:format>
        <dc:type
           rdf:resource="http://purl.org/dc/dcmitype/StillImage" />
        <dc:title></dc:title>
      </cc:Work>
    </rdf:RDF>
  </metadata>
  <g
     inkscape:label="Layer 1"
     inkscape:groupmode="layer"
     id="layer1"
     transform="translate(0,-308.26769)">
    <path
       inkscape:connector-curvature="0"
       id="path22"
       style="fill:#231f20;fill-opacity:1;fill-rule:nonzero;stroke:none"
       d="m 580.99282,1789.8105 -2179.12852,0 0,3.5504 2179.12852,0 0,-3.5504 z m 0,-7.0869 -2179.12852,0 0,3.5491 2179.12852,0 0,-3.5491 z m 0,-7.0756 -2179.12852,0 0,3.5377 2179.12852,0 0,-3.5377 z m 0,-7.0869 -2179.12852,0 0,3.5366 2179.12852,0 0,-3.5366 z m 0,-7.0881 -2179.12852,0 0,3.5377 2179.12852,0 0,-3.5377 z m 0,-7.0869 -2179.12852,0 0,3.5364 2179.12852,0 0,-3.5364 z m 0,-7.0882 -2179.12852,0 0,3.5378 2179.12852,0 0,-3.5378 z m 0,-7.0869 -2179.12852,0 0,3.5367 2179.12852,0 0,-3.5367 z m 0,-7.088 -2179.12852,0 0,3.5376 2179.12852,0 0,-3.5376 z m 0,-7.0871 -2179.12852,0 0,3.5378 2179.12852,0 0,-3.5378 z m 0,-7.088 -2179.12852,0 0,3.5503 2179.12852,0 0,-3.5503 z m 0,-7.0869 -2179.12852,0 0,3.549 2179.12852,0 0,-3.549 z m 0,-7.0883 -2179.12852,0 0,3.5504 2179.12852,0 0,-3.5504 z m 0,-7.0868 -2179.12852,0 0,3.5492 2179.12852,0 0,-3.5492 z m 0,-7.088 -2179.12852,0 0,3.5501 2179.12852,0 0,-3.5501 z m 0,-7.0872 -2179.12852,0 0,3.5504 2179.12852,0 0,-3.5504 z m 0,-7.088 -2179.12852,0 0,3.5504 2179.12852,0 0,-3.5504 z m 0,-7.0742 -2179.12852,0 0,3.5375 2179.12852,0 0,-3.5375 z m 0,-7.0884 -2179.12852,0 0,3.5379 2179.12852,0 0,-3.5379 z m 0,-7.0867 -2179.12852,0 0,3.5377 2179.12852,0 0,-3.5377 z m 0,-7.088 -2179.12852,0 0,3.5375 2179.12852,0 0,-3.5375 z m 0,-7.0873 -2179.12852,0 0,3.5379 2179.12852,0 0,-3.5379 z m 0,-7.088 -2179.12852,0 0,3.5379 2179.12852,0 0,-3.5379 z m 0,-7.0867 -2179.12852,0 0,3.5501 2179.12852,0 0,-3.5501 z m 0,-7.0884 -2179.12852,0 0,3.5505 2179.12852,0 0,-3.5505 z m 0,-7.0868 -2179.12852,0 0,3.5504 2179.12852,0 0,-3.5504 z m 0,-7.0881 -2179.12852,0 0,3.5503 2179.12852,0 0,-3.5503 z m 0,-7.0871 -2179.12852,0 0,3.5505 2179.12852,0 0,-3.5505 z m 0,-7.088 -2179.12852,0 0,3.5505 2179.12852,0 0,-3.5505 z m 0,-7.0743 -2179.12852,0 0,3.5377 2179.12852,0 0,-3.5377 z m 0,-7.0882 -2179.12852,0 0,3.5379 2179.12852,0 0,-3.5379 z m 0,-7.0869 -2179.12852,0 0,3.5379 2179.12852,0 0,-3.5379 z m 0,-7.088 -2179.12852,0 0,3.5376 2179.12852,0 0,-3.5376 z m 0,-7.0871 -2179.12852,0 0,3.5379 2179.12852,0 0,-3.5379 z m 0,-7.088 -2179.12852,0 0,3.5379 2179.12852,0 0,-3.5379 z m 0,-7.0869 -2179.12852,0 0,3.5376 2179.12852,0 0,-3.5376 z m 0,-7.0882 -2179.12852,0 0,3.5378 2179.12852,0 0,-3.5378 z m 0,-7.0869 -2179.12852,0 0,3.5379 2179.12852,0 0,-3.5379 z m 0,-7.0869 -2179.12852,0 0,3.549 2179.12852,0 0,-3.549 z m 0,-7.0882 -2179.12852,0 0,3.5503 2179.12852,0 0,-3.5503 z m 0,-7.088 -2179.12852,0 0,3.5503 2179.12852,0 0,-3.5503 z m 0,-7.0872 -2179.12852,0 0,3.5504 2179.12852,0 0,-3.5504 z m 0,-7.0857 -2179.12852,0 0,3.5472 2179.12852,0 0,-3.5472 z m 0,-7.0885 -2179.12852,0 0,3.5501 2179.12852,0 0,-3.5501 z m 0,-7.0886 -2179.12852,0 0,3.5501 2179.12852,0 0,-3.5501 z m 0,-7.074 -2179.12852,0 0,3.5385 2179.12852,0 0,-3.5385 z m 0,-7.0887 -2179.12852,0 0,3.5385 2179.12852,0 0,-3.5385 z m 0,-7.0856 -2179.12852,0 0,3.5355 2179.12852,0 0,-3.5355 z m 0,-7.0886 -2179.12852,0 0,3.5385 2179.12852,0 0,-3.5385 z m 0,-7.0885 -2179.12852,0 0,3.5384 2179.12852,0 0,-3.5384 z m 0,-7.0858 -2179.12852,0 0,3.5355 2179.12852,0 0,-3.5355 z m 0,-7.0886 -2179.12852,0 0,3.5385 2179.12852,0 0,-3.5385 z m 0,-7.0856 -2179.12852,0 0,3.5355 2179.12852,0 0,-3.5355 z m 0,-7.0886 -2179.12852,0 0,3.5385 2179.12852,0 0,-3.5385 z m 0,-7.0885 -2179.12852,0 0,3.5501 2179.12852,0 0,-3.5501 z m 0,-7.0858 -2179.12852,0 0,3.5501 2179.12852,0 0,-3.5501 z m 0,-7.0886 -2179.12852,0 0,3.5502 2179.12852,0 0,-3.5502 z m 0,-7.0885 -2179.12852,0 0,3.5501 2179.12852,0 0,-3.5501 z m 0,-7.074 -2179.12852,0 0,3.5355 2179.12852,0 0,-3.5355 z m 0,-7.0886 -2179.12852,0 0,3.5385 2179.12852,0 0,-3.5385 z m 0,-7.0857 -2179.12852,0 0,3.5355 2179.12852,0 0,-3.5355 z m 0,-7.0886 -2179.12852,0 0,3.5385 2179.12852,0 0,-3.5385 z m 0,-7.0856 -2179.12852,0 0,3.5355 2179.12852,0 0,-3.5355 z m 0,-7.0886 -2179.12852,0 0,3.5385 2179.12852,0 0,-3.5385 z m 0,-7.0887 -2179.12852,0 0,3.5385 2179.12852,0 0,-3.5385 z m 0,-7.0886 -2179.12852,0 0,3.5385 2179.12852,0 0,-3.5385 z m 0,-7.0856 -2179.12852,0 0,3.5385 2179.12852,0 0,-3.5385 z m 0,-7.0886 -2179.12852,0 0,3.5385 2179.12852,0 0,-3.5385 z m 0,-7.0857 -2179.12852,0 0,3.5502 2179.12852,0 0,-3.5502 z m 0,-7.0886 -2179.12852,0 0,3.5501 2179.12852,0 0,-3.5501 z m 0,-7.0856 -2179.12852,0 0,3.5472 2179.12852,0 0,-3.5472 z m 0,-7.0886 -2179.12852,0 0,3.5501 2179.12852,0 0,-3.5501 z m 0,-7.0887 -2179.12852,0 0,3.5502 2179.12852,0 0,-3.5502 z m 0,-7.0885 -2179.12852,0 0,3.5502 2179.12852,0 0,-3.5502 z m 0,-7.074 -2179.12852,0 0,3.5384 2179.12852,0 0,-3.5384 z m 0,-7.0886 -2179.12852,0 0,3.5385 2179.12852,0 0,-3.5385 z m 0,-7.0856 -2179.12852,0 0,3.5384 2179.12852,0 0,-3.5384 z m 0,-7.0886 -2179.12852,0 0,3.5385 2179.12852,0 0,-3.5385 z m 0,-7.0857 -2179.12852,0 0,3.5384 2179.12852,0 0,-3.5384 z m 0,-7.0886 -2179.12852,0 0,3.5384 2179.12852,0 0,-3.5384 z m 0,-7.0886 -2179.12852,0 0,3.5385 2179.12852,0 0,-3.5385 z m 0,-7.0856 -2179.12852,0 0,3.5355 2179.12852,0 0,-3.5355 z m 0,-7.0887 -2179.12852,0 0,3.5385 2179.12852,0 0,-3.5385 z m 0,-7.0886 -2179.12852,0 0,3.5385 2179.12852,0 0,-3.5385 z m 0,-7.0856 -2179.12852,0 0,3.5501 2179.12852,0 0,-3.5501 z m 0,-7.0886 -2179.12852,0 0,3.5501 2179.12852,0 0,-3.5501 z m 0,-7.074 -2179.12852,0 0,3.5385 2179.12852,0 0,-3.5385 z m 0,-7.0885 -2179.12852,0 0,3.5383 2179.12852,0 0,-3.5383 z m 0,-7.0858 -2179.12852,0 0,3.5355 2179.12852,0 0,-3.5355 z m 0,-7.0886 -2179.12852,0 0,3.5385 2179.12852,0 0,-3.5385 z m 0,-7.0885 -2179.12852,0 0,3.5384 2179.12852,0 0,-3.5384 z m 0,-7.0858 -2179.12852,0 0,3.5357 2179.12852,0 0,-3.5357 z m 0,-7.0885 -2179.12852,0 0,3.5384 2179.12852,0 0,-3.5384 z m 0,-7.0886 -2179.12852,0 0,3.5384 2179.12852,0 0,-3.5384 z m 0,-7.0857 -2179.12852,0 0,3.5385 2179.12852,0 0,-3.5385 z m 0,-7.0885 -2179.12852,0 0,3.5383 2179.12852,0 0,-3.5383 z m 0,-7.0858 -2179.12852,0 0,3.5356 2179.12852,0 0,-3.5356 z m 0,-7.0885 -2179.12852,0 0,3.5501 2179.12852,0 0,-3.5501 z m 0,-7.0886 -2179.12852,0 0,3.5501 2179.12852,0 0,-3.5501 z m 0,-7.0856 -2179.12852,0 0,3.5501 2179.12852,0 0,-3.5501 z m 0,-7.0887 -2179.12852,0 0,3.5502 2179.12852,0 0,-3.5502 z m 0,-7.0857 -2179.12852,0 0,3.5472 2179.12852,0 0,-3.5472 z m 0,-7.0769 -2179.12852,0 0,3.5385 2179.12852,0 0,-3.5385 z m 0,-7.0856 -2179.12852,0 0,3.5355 2179.12852,0 0,-3.5355 z m 0,-7.0886 -2179.12852,0 0,3.5385 2179.12852,0 0,-3.5385 z m 0,-7.0887 -2179.12852,0 0,3.5385 2179.12852,0 0,-3.5385 z m 0,-7.0856 -2179.12852,0 0,3.5355 2179.12852,0 0,-3.5355 z m 0,-7.0886 -2179.12852,0 0,3.5385 2179.12852,0 0,-3.5385 z m 0,-7.0886 -2179.12852,0 0,3.5385 2179.12852,0 0,-3.5385 z m 0,-7.0857 -2179.12852,0 0,3.5355 2179.12852,0 0,-3.5355 z m 0,-7.0886 -2179.12852,0 0,3.5385 2179.12852,0 0,-3.5385 z m 0,-7.0856 -2179.12852,0 0,3.5355 2179.12852,0 0,-3.5355 z m 0,-7.0886 -2179.12852,0 0,3.5385 2179.12852,0 0,-3.5385 z m 0,-7.0885 -2179.12852,0 0,3.5501 2179.12852,0 0,-3.5501 z m 0,-7.0858 -2179.12852,0 0,3.5501 2179.12852,0 0,-3.5501 z m 0,-7.0886 -2179.12852,0 0,3.5502 2179.12852,0 0,-3.5502 z m 0,-7.0885 -2179.12852,0 0,3.5501 2179.12852,0 0,-3.5501 z m 0,-7.074 -2179.12852,0 0,3.5384 2179.12852,0 0,-3.5384 z m 0,-7.0886 -2179.12852,0 0,3.5385 2179.12852,0 0,-3.5385 z m 0,-7.0857 -2179.12852,0 0,3.5384 2179.12852,0 0,-3.5384 z m 0,-7.0886 -2179.12852,0 0,3.5385 2179.12852,0 0,-3.5385 z m 0,-7.0856 -2179.12852,0 0,3.5355 2179.12852,0 0,-3.5355 z m 0,-7.0886 -2179.12852,0 0,3.5383 2179.12852,0 0,-3.5383 z m 0,-7.0887 -2179.12852,0 0,3.5385 2179.12852,0 0,-3.5385 z m 0,-7.0856 -2179.12852,0 0,3.5355 2179.12852,0 0,-3.5355 z m 0,-7.0886 -2179.12852,0 0,3.5501 2179.12852,0 0,-3.5501 z m 0,-7.0886 -2179.12852,0 0,3.5501 2179.12852,0 0,-3.5501 z m 0,-7.0857 -2179.12852,0 0,3.5502 2179.12852,0 0,-3.5502 z m 0,-7.0886 -2179.12852,0 0,3.5501 2179.12852,0 0,-3.5501 z m 0,-7.0856 -2179.12852,0 0,3.5501 2179.12852,0 0,-3.5501 z m 0,-7.0886 -2179.12852,0 0,3.5501 2179.12852,0 0,-3.5501 z m 0,-7.0828 -2179.12852,0 0,3.5443 2179.12852,0 0,-3.5443 z m 0,-7.0856 -2179.12852,0 0,3.5442 2179.12852,0 0,-3.5442 z m 0,-7.0886 -2179.12852,0 0,3.5442 2179.12852,0 0,-3.5442 z m 0,-7.0828 -2179.12852,0 0,3.5414 2179.12852,0 0,-3.5414 z m 0,-7.0886 -2179.12852,0 0,3.5444 2179.12852,0 0,-3.5444 z m 0,-7.0885 -2179.12852,0 0,3.5442 2179.12852,0 0,-3.5442 z m 0,-7.0858 -2179.12852,0 0,3.5414 2179.12852,0 0,-3.5414 z m 0,-7.0856 -2179.12852,0 0,3.5443 2179.12852,0 0,-3.5443 z m 0,-7.0857 -2179.12852,0 0,3.5413 2179.12852,0 0,-3.5413 z m 0,-7.0885 -2179.12852,0 0,3.5413 2179.12852,0 0,-3.5413 z m 0,-7.0858 -2179.12852,0 0,3.5444 2179.12852,0 0,-3.5444 z m 0,-7.0856 -2179.12852,0 0,3.5414 2179.12852,0 0,-3.5414 z m 0,-7.0886 -2179.12852,0 0,3.5413 2179.12852,0 0,-3.5413 z m 0,-7.0857 -2179.12852,0 0,3.5414 2179.12852,0 0,-3.5414 z m 0,-7.0856 -2179.12852,0 0,3.5413 2179.12852,0 0,-3.5413 z m 0,-7.0886 -2179.12852,0 0,3.5442 2179.12852,0 0,-3.5442 z m 0,-7.0858 -2179.12852,0 0,3.5414 2179.12852,0 0,-3.5414 z m 0,-7.0856 -2179.12852,0 0,3.5414 2179.12852,0 0,-3.5414 z m 0,-7.0886 -2179.12852,0 0,3.5444 2179.12852,0 0,-3.5444 z m 0,-7.0856 -2179.12852,0 0,3.5442 2179.12852,0 0,-3.5442 z m 0,-7.0857 -2179.12852,0 0,3.5414 2179.12852,0 0,-3.5414 z m 0,-7.0886 -2179.12852,0 0,3.5443 2179.12852,0 0,-3.5443 z m 0,-7.0857 -2179.12852,0 0,3.5413 2179.12852,0 0,-3.5413 z m 0,-7.0857 -2179.12852,0 0,3.5414 2179.12852,0 0,-3.5414 z m 0,-7.0886 -2179.12852,0 0,3.5444 2179.12852,0 0,-3.5444 z m 0,-7.0856 -2179.12852,0 0,3.5414 2179.12852,0 0,-3.5414 z m 0,-7.0856 -2179.12852,0 0,3.5413 2179.12852,0 0,-3.5413 z m 0,-7.0858 -2179.12852,0 0,3.5414 2179.12852,0 0,-3.5414 z m 0,-7.0885 -2179.12852,0 0,3.5413 2179.12852,0 0,-3.5413 z m 0,-7.0886 -2179.12852,0 0,3.5442 2179.12852,0 0,-3.5442 z m 0,-7.0858 -2179.12852,0 0,3.5444 2179.12852,0 0,-3.5444 z m 0,-7.0856 -2179.12852,0 0,3.5414 2179.12852,0 0,-3.5414 z m 0,-7.0886 -2179.12852,0 0,3.5444 2179.12852,0 0,-3.5444 z m 0,-7.0856 -2179.12852,0 0,3.5442 2179.12852,0 0,-3.5442 z m 0,-7.0857 -2179.12852,0 0,3.5414 2179.12852,0 0,-3.5414 z m 0,-7.0857 -2179.12852,0 0,3.5414 2179.12852,0 0,-3.5414 z m 0,-7.0887 -2179.12852,0 0,3.5444 2179.12852,0 0,-3.5444 z m 0,-7.0856 -2179.12852,0 0,3.5414 2179.12852,0 0,-3.5414 z m 0,-7.0886 -2179.12852,0 0,3.5414 2179.12852,0 0,-3.5414 z m 0,-7.0856 -2179.12852,0 0,3.5442 2179.12852,0 0,-3.5442 z m 0,-7.0857 -2179.12852,0 0,3.5414 2179.12852,0 0,-3.5414 z m 0,-7.0857 -2179.12852,0 0,3.5414 2179.12852,0 0,-3.5414 z m 0,-7.0856 -2179.12852,0 0,3.5413 2179.12852,0 0,-3.5413 z m 0,-7.0887 -2179.12852,0 0,3.5414 2179.12852,0 0,-3.5414 z m 0,-7.0856 -2179.12852,0 0,3.5414 2179.12852,0 0,-3.5414 z m 0,-7.0886 -2179.12852,0 0,3.5442 2179.12852,0 0,-3.5442 z m 0,-7.0856 -2179.12852,0 0,3.5442 2179.12852,0 0,-3.5442 z m 0,-7.0887 -2179.12852,0 0,3.5444 2179.12852,0 0,-3.5444 z m 0,-7.0856 -2179.12852,0 0,3.5443 2179.12852,0 0,-3.5443 z m 0,-7.0857 -2179.12852,0 0,3.5443 2179.12852,0 0,-3.5443 z m 0,-7.0885 -2179.12852,0 0,3.5442 2179.12852,0 0,-3.5442 z m 0,-7.0828 -2179.12852,0 0,3.5414 2179.12852,0 0,-3.5414 z m 0,-7.0886 -2179.12852,0 0,3.5442 2179.12852,0 0,-3.5442 z m 0,-7.0856 -2179.12852,0 0,3.5413 2179.12852,0 0,-3.5413 z m 0,-7.0887 -2179.12852,0 0,3.5443 2179.12852,0 0,-3.5443 z m 0,-7.0856 -2179.12852,0 0,3.5414 2179.12852,0 0,-3.5414 z m 0,-7.0857 -2179.12852,0 0,3.5413 2179.12852,0 0,-3.5413 z m 0,-7.0857 -2179.12852,0 0,3.5414 2179.12852,0 0,-3.5414 z m 0,-7.0857 -2179.12852,0 0,3.5414 2179.12852,0 0,-3.5414 z m 0,-7.0885 -2179.12852,0 0,3.5414 2179.12852,0 0,-3.5414 z m 0,-7.0858 -2179.12852,0 0,3.5414 2179.12852,0 0,-3.5414 z m 0,-7.0856 -2179.12852,0 0,3.5414 2179.12852,0 0,-3.5414 z m 0,-7.0886 -2179.12852,0 0,3.5414 2179.12852,0 0,-3.5414 z m 0,-7.0856 -2179.12852,0 0,3.5413 2179.12852,0 0,-3.5413 z m 0,-7.0887 -2179.12852,0 0,3.5444 2179.12852,0 0,-3.5444 z m 0,-7.0856 -2179.12852,0 0,3.5414 2179.12852,0 0,-3.5414 z m 0,-7.0886 -2179.12852,0 0,3.5442 2179.12852,0 0,-3.5442 z m 0,-7.0856 -2179.12852,0 0,3.5442 2179.12852,0 0,-3.5442 z m 0,-7.0858 -2179.12852,0 0,3.5414 2179.12852,0 0,-3.5414 z m 0,-7.0885 -2179.12852,0 0,3.5443 2179.12852,0 0,-3.5443 z m 0,-7.0857 -2179.12852,0 0,3.5443 2179.12852,0 0,-3.5443 z m 0,-7.0857 -2179.12852,0 0,3.5414 2179.12852,0 0,-3.5414 z m 0,-7.0857 -2179.12852,0 0,3.5414 2179.12852,0 0,-3.5414 z m 0,-7.0856 -2179.12852,0 0,3.5413 2179.12852,0 0,-3.5413 z m 0,-7.0887 -2179.12852,0 0,3.5414 2179.12852,0 0,-3.5414 z m 0,-7.0856 -2179.12852,0 0,3.5414 2179.12852,0 0,-3.5414 z m 0,-7.0856 -2179.12852,0 0,3.5414 2179.12852,0 0,-3.5414 z m 0,-7.0886 -2179.12852,0 0,3.5413 2179.12852,0 0,-3.5413 z m 0,-7.0887 -2179.12852,0 0,3.5444 2179.12852,0 0,-3.5444 z m 0,-7.08271 -2179.12852,0 0,3.54138 2179.12852,0 0,-3.54138 z m 0,-7.08862 -2179.12852,0 0,3.54437 2179.12852,0 0,-3.54437 z m 0,-7.08563 -2179.12852,0 0,3.54138 2179.12852,0 0,-3.54138 z m 0,-7.08562 -2179.12852,0 0,3.54137 2179.12852,0 0,-3.54137 z m 0,-7.08863 -2179.12852,0 0,3.54425 2179.12852,0 0,-3.54425 z m 0,-7.08562 -2179.12852,0 0,3.54137 2179.12852,0 0,-3.54137 z m 0,-7.08575 -2179.12852,0 0,3.54137 2179.12852,0 0,-3.54137 z m 0,-7.08863 -2179.12852,0 0,3.54138 2179.12852,0 0,-3.54138 z m 0,-7.08562 -2179.12852,0 0,3.54137 2179.12852,0 0,-3.54137 z m 0,-7.08563 -2179.12852,0 0,3.54138 2179.12852,0 0,-3.54138 z m 0,-7.08862 -2179.12852,0 0,3.54425 2179.12852,0 0,-3.54425 z m 0,-7.08563 -2179.12852,0 0,3.54138 2179.12852,0 0,-3.54138 z m 0,-7.08575 -2179.12852,0 0,3.54138 2179.12852,0 0,-3.54138 z m 0,-7.08562 -2179.12852,0 0,3.54137 2179.12852,0 0,-3.54137 z m 0,-7.08863 -2179.12852,0 0,3.54138 2179.12852,0 0,-3.54138 z m 0,-7.08562 -2179.12852,0 0,3.54137 2179.12852,0 0,-3.54137 z m 0,-7.08863 -2179.12852,0 0,3.54425 2179.12852,0 0,-3.54425 z m 0,-7.08562 -2179.12852,0 0,3.54137 2179.12852,0 0,-3.54137 z m 0,-7.08575 -2179.12852,0 0,3.54137 2179.12852,0 0,-3.54137 z m 0,-7.0885 -2179.12852,0 0,3.54425 2179.12852,0 0,-3.54425 z m 0,-7.08575 -2179.12852,0 0,3.54437 2179.12852,0 0,-3.54437 z m 0,-7.08563 -2179.12852,0 0,3.54138 2179.12852,0 0,-3.54138 z m 0,-7.08862 -2179.12852,0 0,3.54437 2179.12852,0 0,-3.54437 z m 0,-7.08563 -2179.12852,0 0,3.54138 2179.12852,0 0,-3.54138 z m 0,-7.08575 -2179.12852,0 0,3.54138 2179.12852,0 0,-3.54138 z m 0,-7.0885 -2179.12852,0 0,3.54425 2179.12852,0 0,-3.54425 z m 0,-7.08575 -2179.12852,0 0,3.54138 2179.12852,0 0,-3.54138 z m 0,-7.08562 -2179.12852,0 0,3.54137 2179.12852,0 0,-3.54137 z m 0,-7.08563 -2179.12852,0 0,3.54138 2179.12852,0 0,-3.54138 z m 0,-7.088621 -2179.12852,0 0,3.54137 2179.12852,0 0,-3.54137 z m 0,-7.08575 -2179.12852,0 0,3.54137 2179.12852,0 0,-3.54137 z m 0,-7.08563 -2179.12852,0 0,3.54138 2179.12852,0 0,-3.54138 z m 0,-7.08862 -2179.12852,0 0,3.54437 2179.12852,0 0,-3.54437 z m 0,-7.08563 -2179.12852,0 0,3.54138 2179.12852,0 0,-3.54138 z m 0,-7.08562 -2179.12852,0 0,3.54137 2179.12852,0 0,-3.54137 z m 0,-7.08863 -2179.12852,0 0,3.54425 2179.12852,0 0,-3.54425 z m 0,-7.08562 -2179.12852,0 0,3.54425 2179.12852,0 0,-3.54425 z m 0,-7.08575 -2179.12852,0 0,3.54137 2179.12852,0 0,-3.54137 z m 0,-7.08863 -2179.12852,0 0,3.54138 2179.12852,0 0,-3.54138 z m 0,-7.08562 -2179.12852,0 0,3.54137 2179.12852,0 0,-3.54137 z m 0,-7.08863 -2179.12852,0 0,3.54438 2179.12852,0 0,-3.54438 z m 0,-7.08562 -2179.12852,0 0,3.54137 2179.12852,0 0,-3.54137 z m 0,-7.0856301 -2179.12852,0 0,3.54425 2179.12852,0 0,-3.54425 z m 0,-7.08575 -2179.12852,0 0,3.54137995 2179.12852,0 0,-3.54137995 z m 0,-7.0884999 -2179.12852,0 0,3.5442499 2179.12852,0 0,-3.5442499 z m 0,-7.08575 -2179.12852,0 0,3.54138 2179.12852,0 0,-3.54138 z m 0,-7.08562 -2179.12852,0 0,3.54137 2179.12852,0 0,-3.54137 z m 0,-7.08863 -2179.12852,0 0,3.54425 2179.12852,0 0,-3.54425 z m 0,-7.08562 -2179.12852,0 0,3.54137 2179.12852,0 0,-3.54137 z m 0,-7.08575 -2179.12852,0 0,3.54137 2179.12852,0 0,-3.54137 z m 0,-7.0885 -2179.12852,0 0,3.54425 2179.12852,0 0,-3.54425 z m 0,-7.08575 -2179.12852,0 0,3.54437 2179.12852,0 0,-3.54437 z m 0,-7.08563 -2179.12852,0 0,3.54138 2179.12852,0 0,-3.54138 z m 0,-7.08862 -2179.12852,0 0,3.54425 2179.12852,0 0,-3.54425 z m 0,-7.08563 -2179.12852,0 0,3.54425 2179.12852,0 0,-3.54425 z m 0,-7.08575 -2179.12852,0 0,3.54138 2179.12852,0 0,-3.54138 z m 0,-7.0885 -2179.12852,0 0,3.54425 2179.12852,0 0,-3.54425 z m 0,-7.085749 -2179.12852,0 0,3.541379 2179.12852,0 0,-3.541379 z m 0,-7.08562 -2179.12852,0 0,3.54425 2179.12852,0 0,-3.54425 z m 0,-7.08863 -2179.12852,0 0,3.54438 2179.12852,0 0,-3.54438 z m 0,-7.08562 -2179.12852,0 0,3.54425 2179.12852,0 0,-3.54425 z m 0,-7.08575 -2179.12852,0 0,3.54437 2179.12852,0 0,-3.54437 z m 0,-7.08563 -2179.12852,0 0,3.54138 2179.12852,0 0,-3.54138 z m 0,-7.08862 -2179.12852,0 0,3.54137 2179.12852,0 0,-3.54137 z m 0,-7.08563 -2179.12852,0 0,3.54138 2179.12852,0 0,-3.54138 z m 0,-7.08562 -2179.12852,0 0,3.54137 2179.12852,0 0,-3.54137 z m 0,-7.08863 -2179.12852,0 0,3.54425 2179.12852,0 0,-3.54425 z m 0,-7.08562 -2179.12852,0 0,3.54425 2179.12852,0 0,-3.54425 z m 0,-7.08575 -2179.12852,0 0,3.54137 2179.12852,0 0,-3.54137 z m 0,-7.08863 -2179.12852,0 0,3.54438 2179.12852,0 0,-3.54438 z m 0,-7.08562 -2179.12852,0 0,3.54425 2179.12852,0 0,-3.54425 z m 0,-7.08863 -2179.12852,0 0,3.54438 2179.12852,0 0,-3.54438 z m 0,-7.08562 -2179.12852,0 0,3.54425 2179.12852,0 0,-3.54425 z m 0,-7.08563 -2179.12852,0 0,3.54425 2179.12852,0 0,-3.54425 z m 0,-7.08575 -2179.12852,0 0,3.54138 2179.12852,0 0,-3.54138 z m 0,-7.08862 -2179.12852,0 0,3.54437 2179.12852,0 0,-3.54437 z m 0,-7.08563 -2179.12852,0 0,3.54425 2179.12852,0 0,-3.54425 z m 0,-7.08562 -2179.12852,0 0,3.54137 2179.12852,0 0,-3.54137 z m 0,-7.08863 -2179.12852,0 0,3.54425 2179.12852,0 0,-3.54425 z m 0,-7.08562 -2179.12852,0 0,3.54137 2179.12852,0 0,-3.54137 z m 0,-7.08575 -2179.12852,0 0,3.54137 2179.12852,0 0,-3.54137 z m 0,-7.0885 -2179.12852,0 0,3.54425 2179.12852,0 0,-3.54425 z m 0,-7.08275 -2179.12852,0 0,3.54137 2179.12852,0 0,-3.54137 z m 0,-7.08863 -2179.12852,0 0,3.54138 2179.12852,0 0,-3.54138 z m 0,-7.08575 -2179.12852,0 0,3.54137 2179.12852,0 0,-3.54137 z m 0,-7.08563 -2179.12852,0 0,3.54138 2179.12852,0 0,-3.54138 z m 0,-7.08862 -2179.12852,0 0,3.54437 2179.12852,0 0,-3.54437 z m 0,-7.0885 -2179.12852,0 0,3.54425 2179.12852,0 0,-3.54425 z m 0,-7.08275 -2179.12852,0 0,3.54137 2179.12852,0 0,-3.54137 z m 0,-7.08863 -2179.12852,0 0,3.54138 2179.12852,0 0,-3.54138 z m 0,-7.08862 -2179.12852,0 0,3.54425 2179.12852,0 0,-3.54425 z m 0,-7.08563 -2179.12852,0 0,3.54425 2179.12852,0 0,-3.54425 z m 0,-7.08575 -2179.12852,0 0,3.54138 2179.12852,0 0,-3.54138 z m 0,-7.08562 -2179.12852,0 0,3.54137 2179.12852,0 0,-3.54137 z m 0,-7.08863 -2179.12852,0 0,3.54438 2179.12852,0 0,-3.54438 z m 0,-7.08562 -2179.12852,0 0,3.54137 2179.12852,0 0,-3.54137 z m 0,-7.08563 -2179.12852,10e-6 0,3.54137 2179.12852,0 0,-3.54137 z m 0,-3.54437 -2179.12852,0 0,-3.54425 2179.12852,0 0,3.54425" />
  </g>
</svg>
