<?xml version="1.0" encoding="UTF-8" standalone="no"?>
<!-- Created with Inkscape (http://www.inkscape.org/) -->

<svg
   xmlns:dc="http://purl.org/dc/elements/1.1/"
   xmlns:cc="http://creativecommons.org/ns#"
   xmlns:rdf="http://www.w3.org/1999/02/22-rdf-syntax-ns#"
   xmlns:svg="http://www.w3.org/2000/svg"
   xmlns="http://www.w3.org/2000/svg"
   xmlns:sodipodi="http://sodipodi.sourceforge.net/DTD/sodipodi-0.dtd"
   xmlns:inkscape="http://www.inkscape.org/namespaces/inkscape"
   width="1052.3622"
   height="744.09448"
   id="svg2"
   version="1.1"
   inkscape:version="0.48.5 r10040"
   sodipodi:docname="repairs.svg">
  <defs
     id="defs4" />
  <sodipodi:namedview
     id="base"
     pagecolor="#ffffff"
     bordercolor="#666666"
     borderopacity="1.0"
     inkscape:pageopacity="0.0"
     inkscape:pageshadow="2"
     inkscape:zoom="0.35"
     inkscape:cx="380.71429"
     inkscape:cy="742.85714"
     inkscape:document-units="mm"
     inkscape:current-layer="layer1"
     showgrid="false"
     units="mm"
     inkscape:window-width="1653"
     inkscape:window-height="848"
     inkscape:window-x="0"
     inkscape:window-y="21"
     inkscape:window-maximized="0" />
  <metadata
     id="metadata7">
    <rdf:RDF>
      <cc:Work
         rdf:about="">
        <dc:format>image/svg+xml</dc:format>
        <dc:type
           rdf:resource="http://purl.org/dc/dcmitype/StillImage" />
        <dc:title></dc:title>
      </cc:Work>
    </rdf:RDF>
  </metadata>
  <g
     inkscape:label="Layer 1"
     inkscape:groupmode="layer"
     id="layer1"
     transform="translate(0,-308.26769)">
    <g
       transform="matrix(1.25,0,0,-1.25,-273.69543,2130.4473)"
       id="g5603">
      <path
         d="m 229.41521,874.48219 11.08233,0 0,2.84575 -11.08233,0 0,-2.84575 z"
         style="fill:#231f20;fill-opacity:1;fill-rule:nonzero;stroke:none"
         id="path1864"
         inkscape:connector-curvature="0" />
      <path
         d="m 229.41521,880.15072 11.08233,0 0,2.84485 -11.08233,0 0,-2.84485 z"
         style="fill:#231f20;fill-opacity:1;fill-rule:nonzero;stroke:none"
         id="path1866"
         inkscape:connector-curvature="0" />
      <path
         d="m 229.41521,868.81131 11.08233,0 0,2.84485 -11.08233,0 0,-2.84485 z"
         style="fill:#231f20;fill-opacity:1;fill-rule:nonzero;stroke:none"
         id="path1868"
         inkscape:connector-curvature="0" />
      <path
         d="m 229.41521,897.15867 11.08233,0 0,2.84667 -11.08233,0 0,-2.84667 z"
         style="fill:#231f20;fill-opacity:1;fill-rule:nonzero;stroke:none"
         id="path1870"
         inkscape:connector-curvature="0" />
      <path
         d="m 229.41521,885.81926 11.08233,0 0,2.84575 -11.08233,0 0,-2.84575 z"
         style="fill:#231f20;fill-opacity:1;fill-rule:nonzero;stroke:none"
         id="path1872"
         inkscape:connector-curvature="0" />
      <path
         d="m 229.41521,891.4878 11.08233,0 0,2.84575 -11.08233,0 0,-2.84575 z"
         style="fill:#231f20;fill-opacity:1;fill-rule:nonzero;stroke:none"
         id="path1874"
         inkscape:connector-curvature="0" />
      <path
         d="m 229.41521,902.82955 11.08233,0 0,2.84484 -11.08233,0 0,-2.84484 z"
         style="fill:#231f20;fill-opacity:1;fill-rule:nonzero;stroke:none"
         id="path1876"
         inkscape:connector-curvature="0" />
      <path
         d="m 229.41521,931.17457 11.08233,0 0,2.8439 -11.08233,0 0,-2.8439 z"
         style="fill:#231f20;fill-opacity:1;fill-rule:nonzero;stroke:none"
         id="path1878"
         inkscape:connector-curvature="0" />
      <path
         d="m 229.41521,908.49808 11.08233,0 0,2.84484 -11.08233,0 0,-2.84484 z"
         style="fill:#231f20;fill-opacity:1;fill-rule:nonzero;stroke:none"
         id="path1880"
         inkscape:connector-curvature="0" />
      <path
         d="m 229.41521,953.85339 11.08233,0 0,2.84299 -11.08233,0 0,-2.84299 z"
         style="fill:#231f20;fill-opacity:1;fill-rule:nonzero;stroke:none"
         id="path1882"
         inkscape:connector-curvature="0" />
      <path
         d="m 229.41521,919.83749 11.08233,0 0,2.84391 -11.08233,0 0,-2.84391 z"
         style="fill:#231f20;fill-opacity:1;fill-rule:nonzero;stroke:none"
         id="path1884"
         inkscape:connector-curvature="0" />
      <path
         d="m 229.41521,914.16662 11.08233,0 0,2.84575 -11.08233,0 0,-2.84575 z"
         style="fill:#231f20;fill-opacity:1;fill-rule:nonzero;stroke:none"
         id="path1886"
         inkscape:connector-curvature="0" />
      <path
         d="m 229.41521,925.50369 11.08233,0 0,2.84667 -11.08233,0 0,-2.84667 z"
         style="fill:#231f20;fill-opacity:1;fill-rule:nonzero;stroke:none"
         id="path1888"
         inkscape:connector-curvature="0" />
      <path
         d="m 229.41521,948.18251 11.08233,0 0,2.84484 -11.08233,0 0,-2.84484 z"
         style="fill:#231f20;fill-opacity:1;fill-rule:nonzero;stroke:none"
         id="path1890"
         inkscape:connector-curvature="0" />
      <path
         d="m 229.41521,942.51398 11.08233,0 0,2.84484 -11.08233,0 0,-2.84484 z"
         style="fill:#231f20;fill-opacity:1;fill-rule:nonzero;stroke:none"
         id="path1892"
         inkscape:connector-curvature="0" />
      <path
         d="m 229.41521,936.8431 11.08233,0 0,2.84391 -11.08233,0 0,-2.84391 z"
         style="fill:#231f20;fill-opacity:1;fill-rule:nonzero;stroke:none"
         id="path1894"
         inkscape:connector-curvature="0" />
    </g>
    <g
       id="g5737"
       transform="translate(-720,91.428571)">
      <path
         d="m 823.87959,865.93518 -20.16338,0 0,2.35116 -20.8125,0 0,-3.55306 102.76413,0 0,3.55306 -20.80075,0 0,-2.35116 -20.16338,0 0,2.35116 -20.82412,0 0,-2.35116"
         style="fill:#231f20;fill-opacity:1;fill-rule:nonzero;stroke:none"
         id="path164"
         inkscape:connector-curvature="0" />
      <path
         d="m 782.90371,847.02057 102.76301,0 0,-1.89969 -102.76301,0 0,1.89969 z"
         style="fill:#231f20;fill-opacity:1;fill-rule:nonzero;stroke:none"
         id="path350"
         inkscape:connector-curvature="0" />
      <path
         d="m 881.54159,882.46061 -12.56288,0 0,0 c -1.42425,-0.81297 -2.48575,-2.00024 -3.1495,-3.55014 l 0,-0.0146 18.8765,0 0,0.0146 c -0.6755,1.5382 -1.73987,2.73717 -3.16412,3.55014"
         style="fill:#231f20;fill-opacity:1;fill-rule:nonzero;stroke:none"
         id="path384"
         inkscape:connector-curvature="0" />
      <path
         d="m 864.96646,875.37202 c -0.0612,-0.67553 -0.1,-1.31303 -0.1,-1.95054 l 0,-1.6113 20.80076,0 0,1.6113 c 0,0.62581 -0.0375,1.26331 -0.11375,1.95054 l -20.58738,0 0,0"
         style="fill:#231f20;fill-opacity:1;fill-rule:nonzero;stroke:none"
         id="path386"
         inkscape:connector-curvature="0" />
      <path
         d="m 782.90371,861.19776 102.76301,0 0,-3.54919 -102.76301,0 0,3.54919 z"
         style="fill:#231f20;fill-opacity:1;fill-rule:nonzero;stroke:none"
         id="path416"
         inkscape:connector-curvature="0" />
      <path
         d="m 782.90371,854.10916 102.76301,0 0,-3.55032 -102.76301,0 0,3.55032 z"
         style="fill:#231f20;fill-opacity:1;fill-rule:nonzero;stroke:none"
         id="path440"
         inkscape:connector-curvature="0" />
      <path
         d="m 823.87959,882.46061 20.82562,0 0,-3.56289 -20.82562,0 0,3.56289 z"
         style="fill:#231f20;fill-opacity:1;fill-rule:nonzero;stroke:none"
         id="path504"
         inkscape:connector-curvature="0" />
      <path
         d="m 823.87959,875.37202 20.82562,0 0,-3.56175 -20.82562,0 0,3.56175 z"
         style="fill:#231f20;fill-opacity:1;fill-rule:nonzero;stroke:none"
         id="path506"
         inkscape:connector-curvature="0" />
      <path
         d="m 799.59296,882.46061 -12.563,0 0,0 c -1.42412,-0.81297 -2.48862,-2.01194 -3.1495,-3.55014 l -0.015,-0.0146 18.88825,0 0,0.0146 c -0.6755,1.5382 -1.737,2.73717 -3.16112,3.55014"
         style="fill:#231f20;fill-opacity:1;fill-rule:nonzero;stroke:none"
         id="path508"
         inkscape:connector-curvature="0" />
      <path
         d="m 783.00609,875.37202 c -0.0638,-0.68723 -0.1025,-1.32473 -0.1025,-1.95054 l 0,-1.6113 20.8125,0 0,1.6113 c 0,0.62581 -0.0375,1.26331 -0.1,1.95054 l -20.61075,0 0,0"
         style="fill:#231f20;fill-opacity:1;fill-rule:nonzero;stroke:none"
         id="path514"
         inkscape:connector-curvature="0" />
    </g>
    <g
       id="g5773"
       transform="translate(-105.71429,645.71429)">
      <path
         d="m 345.54872,387.62626 c -0.46498,-0.351 -0.98843,-0.68725 -1.5733,-1.00888 -0.006,0 -0.009,0 -0.0146,-0.0125 -0.27196,-0.14912 -0.55562,-0.29237 -0.85098,-0.43275 -0.0351,-0.0175 -0.0673,-0.035 -0.10238,-0.05 -0.30121,-0.14325 -0.61996,-0.28075 -0.95041,-0.41812 -0.0234,-0.0125 -0.0497,-0.02 -0.076,-0.0325 -1.43001,-0.58488 -3.1232,-1.11125 -5.09128,-1.59088 l -0.0526,-0.0125 26.04415,0 c 1.2984,1.03513 2.75765,2.19613 4.46254,3.54138 l 0.0146,0.0125 -21.80679,0 -0.002,0"
         style="fill:#231f20;fill-opacity:1;fill-rule:nonzero;stroke:none"
         id="path1090"
         inkscape:connector-curvature="0" />
      <path
         d="m 351.0845,366.36626 c -0.71063,-0.31 -1.45341,-0.5995 -2.20496,-0.886 -0.12574,-0.0462 -0.24564,-0.1025 -0.37432,-0.14913 -0.7457,-0.272 -1.52357,-0.52937 -2.31607,-0.78375 -0.15207,-0.0462 -0.30413,-0.1025 -0.45912,-0.15212 -1.88327,-0.58188 -3.89815,-1.1025 -6.07092,-1.57038 l -0.0585,-0.0125 25.75464,0 c 1.15803,0.91238 2.0909,1.71075 2.93018,2.512 0.23688,0.22225 0.6258,0.5615 1.18728,1.03225 l 0.0146,0.0125 -18.39993,0 -0.002,0"
         style="fill:#231f20;fill-opacity:1;fill-rule:nonzero;stroke:none"
         id="path1284"
         inkscape:connector-curvature="0" />
      <path
         d="m 185.49388,387.62326 0,0 -23.55261,0 0.0321,-0.0125 c 4.38066,-1.5265 7.52725,-2.24013 9.90473,-2.246 0.12575,-0.25138 0.21932,-0.6725 0.28951,-1.2925 l 0,0 13.82627,0 0,0 c -0.10237,1.2955 -0.26612,2.4535 -0.50006,3.54425"
         style="fill:#231f20;fill-opacity:1;fill-rule:nonzero;stroke:none"
         id="path1308"
         inkscape:connector-curvature="0" />
    </g>
  </g>
</svg>
